<?xml version="1.0" encoding="UTF-8"?>
<!DOCTYPE svg PUBLIC "-//W3C//DTD SVG 1.1//EN" "http://www.w3.org/Graphics/SVG/1.1/DTD/svg11.dtd">
<!-- Creator: CorelDRAW X8 -->
<svg xmlns="http://www.w3.org/2000/svg" xml:space="preserve" width="0.468764in" height="0.468764in" version="1.1" style="shape-rendering:geometricPrecision; text-rendering:geometricPrecision; image-rendering:optimizeQuality; fill-rule:evenodd; clip-rule:evenodd"
viewBox="0 0 167 167"
 xmlns:xlink="http://www.w3.org/1999/xlink">
 <defs>
  <style type="text/css">
   <![CDATA[
    .fil0 {fill:#FEFEFE;fill-rule:nonzero}
   ]]>
  </style>
 </defs>
 <g id="Layer_x0020_1">
  <metadata id="CorelCorpID_0Corel-Layer"/>
  <g id="_2463697353792">
   <path class="fil0" d="M147 12c7,0 13,4 14,11 -4,-4 -9,-6 -14,-6l-43 0 0 6 43 0c7,0 13,5 14,12 -4,-4 -9,-6 -14,-6l-43 0 0 6 43 0c7,0 13,5 14,11 -4,-3 -9,-6 -14,-6l-43 0 0 6 43 0c7,0 13,5 14,12 -4,-4 -9,-6 -14,-6l-43 0 0 6 43 0c7,0 13,5 14,11 -4,-3 -9,-6 -14,-6l-43 0 0 6 43 0c8,0 14,7 14,15 0,7 -6,14 -14,14l-101 0 0 6 101 0c5,0 10,-3 14,-6 -1,6 -7,11 -14,11l-101 0 0 6 101 0c5,0 10,-2 14,-6 -1,7 -7,12 -14,12l-101 0 0 6 101 0c5,0 10,-2 14,-6 -1,7 -7,12 -14,12l-101 0 0 5 101 0c5,0 10,-2 14,-6 -1,7 -7,12 -14,12l-101 0 0 6 101 0c5,0 10,-2 14,-6 -1,7 -7,12 -14,12l-101 0 0 5 101 0c11,0 20,-9 20,-20l0 -115c0,-11 -9,-20 -20,-20l-43 0 0 6 43 0z"/>
   <polygon class="fil0" points="6,144 6,138 0,138 0,144 "/>
   <polygon class="fil0" points="17,133 17,127 12,127 12,133 "/>
   <polygon class="fil0" points="6,121 6,115 0,115 0,121 "/>
   <polygon class="fil0" points="6,133 6,127 0,127 0,133 "/>
   <polygon class="fil0" points="17,121 17,115 12,115 12,121 "/>
   <path class="fil0" d="M3 92c-2,0 -3,1 -3,3l0 3 6 0 0 -6 -3 0z"/>
   <polygon class="fil0" points="17,98 17,92 12,92 12,98 "/>
   <polygon class="fil0" points="17,109 17,104 12,104 12,109 "/>
   <polygon class="fil0" points="6,109 6,104 0,104 0,109 "/>
   <polygon class="fil0" points="17,167 17,161 12,161 12,167 "/>
   <path class="fil0" d="M37 92l-14 0 0 75 14 0c2,0 3,-1 3,-3l0 -69c0,-2 -1,-3 -3,-3z"/>
   <path class="fil0" d="M0 161l0 3c0,2 1,3 3,3l3 0 0 -6 -6 0z"/>
   <polygon class="fil0" points="6,156 6,150 0,150 0,156 "/>
   <polygon class="fil0" points="17,156 17,150 12,150 12,156 "/>
   <polygon class="fil0" points="17,144 17,138 12,138 12,144 "/>
   <polygon class="fil0" points="63,40 63,35 58,35 58,40 "/>
   <polygon class="fil0" points="75,29 75,23 69,23 69,29 "/>
   <polygon class="fil0" points="63,52 63,46 58,46 58,52 "/>
   <polygon class="fil0" points="75,40 75,35 69,35 69,40 "/>
   <polygon class="fil0" points="63,17 63,12 58,12 58,17 "/>
   <polygon class="fil0" points="75,17 75,12 69,12 69,17 "/>
   <polygon class="fil0" points="63,29 63,23 58,23 58,29 "/>
   <polygon class="fil0" points="75,52 75,46 69,46 69,52 "/>
   <polygon class="fil0" points="75,6 75,0 69,0 69,6 "/>
   <path class="fil0" d="M95 75c2,0 3,-1 3,-3l0 -69c0,-2 -1,-3 -3,-3l-14 0 0 75 14 0z"/>
   <polygon class="fil0" points="63,63 63,58 58,58 58,63 "/>
   <path class="fil0" d="M58 3l0 3 5 0 0 -6 -3 0c-1,0 -2,1 -2,3z"/>
   <polygon class="fil0" points="75,75 75,69 69,69 69,75 "/>
   <polygon class="fil0" points="75,63 75,58 69,58 69,63 "/>
   <path class="fil0" d="M58 69l0 3c0,2 1,3 2,3l3 0 0 -6 -5 0z"/>
  </g>
 </g>
</svg>
