<?xml version="1.0" encoding="UTF-8"?>
<!DOCTYPE svg PUBLIC "-//W3C//DTD SVG 1.1//EN" "http://www.w3.org/Graphics/SVG/1.1/DTD/svg11.dtd">
<!-- Creator: CorelDRAW X8 -->
<svg xmlns="http://www.w3.org/2000/svg" xml:space="preserve" width="6.81844in" height="1.35045in" version="1.1" style="shape-rendering:geometricPrecision; text-rendering:geometricPrecision; image-rendering:optimizeQuality; fill-rule:evenodd; clip-rule:evenodd"
viewBox="0 0 5554 1100"
 xmlns:xlink="http://www.w3.org/1999/xlink">
 <defs>
  <style type="text/css">
   <![CDATA[
    .fil10 {fill:none}
    .fil7 {fill:#FEC02D}
    .fil4 {fill:#F89D32}
    .fil12 {fill:#EF4351}
    .fil5 {fill:#E74E53}
    .fil11 {fill:#F0B732}
    .fil9 {fill:#EB9336}
    .fil2 {fill:#DF3B4A}
    .fil6 {fill:#D13457}
    .fil8 {fill:#B43566}
    .fil13 {fill:#AB3562}
    .fil3 {fill:#FA2A3B}
    .fil0 {fill:#FEFEFE;fill-rule:nonzero}
    .fil1 {fill:#EF4351;fill-rule:nonzero}
   ]]>
  </style>
 </defs>
 <g id="Layer_x0020_1">
  <metadata id="CorelCorpID_0Corel-Layer"/>
  <g id="_1840076566496">
   <polygon class="fil0" points="1141,448 1212,448 1212,756 1141,756 "/>
   <polygon id="1" class="fil0" points="1942,448 1942,756 1883,756 1730,569 1730,756 1659,756 1659,448 1718,448 1871,635 1871,448 "/>
   <path id="2" class="fil0" d="M2389 448l140 0c33,0 63,6 89,19 25,13 45,31 59,54 15,23 22,50 22,81 0,31 -7,58 -22,81 -14,23 -34,41 -59,54 -26,13 -56,19 -89,19l-140 0 0 -308zm136 250c31,0 56,-9 74,-26 18,-17 28,-41 28,-70 0,-29 -10,-53 -28,-70 -18,-17 -43,-26 -74,-26l-65 0 0 192 65 0z"/>
   <path id="3" class="fil0" d="M3329 690l-143 0 -27 66 -73 0 137 -308 71 0 138 308 -75 0 -28 -66zm-22 -54l-49 -118 -49 118 98 0z"/>
   <path id="4" class="fil0" d="M4046 597l65 0 0 125c-17,13 -36,23 -58,29 -22,7 -44,10 -66,10 -32,0 -61,-6 -87,-20 -25,-14 -45,-33 -60,-57 -14,-24 -22,-51 -22,-82 0,-30 8,-58 22,-82 15,-24 35,-43 61,-57 25,-14 55,-20 87,-20 27,0 51,4 73,13 22,9 41,23 56,40l-46 42c-22,-23 -49,-35 -80,-35 -19,0 -37,5 -52,13 -15,8 -27,20 -36,35 -8,14 -12,32 -12,51 0,19 4,36 12,51 9,15 21,27 36,35 15,9 32,13 51,13 21,0 40,-5 56,-14l0 -90z"/>
   <path id="5" class="fil0" d="M4747 756l-59 -86 -3 0 -63 0 0 86 -71 0 0 -308 134 0c27,0 51,4 71,14 20,9 35,22 46,38 11,17 16,37 16,60 0,23 -5,42 -16,59 -11,17 -27,29 -47,38l69 99 -77 0zm-1 -196c0,-18 -5,-31 -17,-40 -11,-9 -27,-14 -48,-14l-59 0 0 107 59 0c21,0 37,-4 48,-14 12,-9 17,-22 17,-39z"/>
   <path id="6" class="fil0" d="M5452 690l-143 0 -28 66 -73 0 138 -308 70 0 138 308 -75 0 -27 -66zm-23 -54l-49 -118 -49 118 98 0z"/>
   <g>
    <g>
     <path class="fil1" d="M265 76c0,42 34,76 76,76 42,0 76,-34 76,-76 0,-42 -34,-76 -76,-76 -42,0 -76,34 -76,76z"/>
     <path class="fil2" d="M341 152l0 -152c42,0 76,34 76,76 0,42 -34,76 -76,76z"/>
    </g>
    <path class="fil3" d="M552 884c64,-64 130,-111 130,-212 0,-101 -66,-148 -130,-212l-57 -56c18,22 31,47 39,75 4,16 6,34 6,52 0,51 -19,98 -51,133 -2,3 -5,5 -7,8 3,4 7,7 10,11 30,35 48,81 48,131 0,18 -2,35 -6,52 -8,28 -22,54 -40,76l58 -58z"/>
    <path class="fil4" d="M199 389c-36,36 -58,86 -58,141 0,51 19,98 50,133 3,3 6,6 9,9l0 0 70 -71 71 -70 -71 -71 -71 -71z"/>
    <polygon class="fil5" points="341,531 411,601 482,672 411,743 341,813 270,743 200,672 270,601 "/>
    <path class="fil6" d="M341 813l-71 -71 -62 -62c-3,-3 -6,-5 -8,-8l-12 12c-30,35 -47,80 -47,129 0,49 17,94 47,129l12 12 9 -9 61 -61 71 -71z"/>
    <path class="fil7" d="M471 380l1 0 9 10 -69 70 -71 71 -71 -71 -71 -71 23 -22 109 -110c5,-6 14,-6 20,0l120 123z"/>
    <path class="fil3" d="M130 884c-64,-64 -130,-111 -130,-212 0,-62 25,-103 59,-141l70 70 70 70 0 1 0 0 0 0 1 0 0 0c-4,4 -7,7 -10,11 -31,35 -49,81 -49,131 0,18 3,35 7,52 8,28 22,54 40,76l-58 -58z"/>
    <path class="fil8" d="M341 813l71 71 70 70 -10 10 -121 123c-6,6 -15,6 -20,0l-121 -122 -10 -11 9 -9 61 -61 71 -71z"/>
    <path class="fil9" d="M541 531c0,-48 -17,-92 -45,-127l-15 -14 -70 71 -70 70c4,4 7,8 11,12l59 59 59 59c4,3 8,7 12,11l7 -7c32,-36 52,-83 52,-134z"/>
    <path class="fil6" d="M482 954c4,-3 8,-7 11,-11 30,-35 48,-81 48,-130 0,-49 -18,-95 -48,-130l-11 -11c-3,3 -5,5 -8,7l-63 63c-18,19 -42,32 -60,57l-10 14 70 71 71 70z"/>
    <line class="fil10" x1="341" y1="243" x2="341" y2= "1100" />
    <path class="fil11" d="M412 460l69 -70 -9 -10 -1 0 -120 -123c-3,-3 -6,-5 -10,-5l0 279 70 -70 1 -1z"/>
    <path class="fil12" d="M482 672c-4,-4 -8,-8 -12,-11l-59 -59 -59 -59c-3,-3 -6,-7 -9,-10l-2 -2 0 282 48 -48c7,-8 15,-15 22,-23l63 -63c3,-2 5,-4 8,-7z"/>
    <path class="fil13" d="M482 954l-71 -70 -70 -71 0 278c4,0 7,-1 10,-4l121 -123 10 -10z"/>
   </g>
  </g>
 </g>
</svg>
