<?xml version="1.0" encoding="UTF-8"?>
<!DOCTYPE svg PUBLIC "-//W3C//DTD SVG 1.1//EN" "http://www.w3.org/Graphics/SVG/1.1/DTD/svg11.dtd">
<!-- Creator: CorelDRAW X8 -->
<svg xmlns="http://www.w3.org/2000/svg" xml:space="preserve" width="2.02532in" height="0.401126in" version="1.1" style="shape-rendering:geometricPrecision; text-rendering:geometricPrecision; image-rendering:optimizeQuality; fill-rule:evenodd; clip-rule:evenodd"
viewBox="0 0 239 47"
 xmlns:xlink="http://www.w3.org/1999/xlink">
 <defs>
  <style type="text/css">
   <![CDATA[
    .fil10 {fill:none}
    .fil7 {fill:#FEC02D}
    .fil4 {fill:#F89D32}
    .fil12 {fill:#EF4351}
    .fil5 {fill:#E74E53}
    .fil11 {fill:#F0B732}
    .fil9 {fill:#EB9336}
    .fil2 {fill:#DF3B4A}
    .fil6 {fill:#D13457}
    .fil8 {fill:#B43566}
    .fil13 {fill:#AB3562}
    .fil3 {fill:#FA2A3B}
    .fil1 {fill:#EF4351;fill-rule:nonzero}
    .fil0 {fill:#191D29;fill-rule:nonzero}
   ]]>
  </style>
 </defs>
 <g id="Layer_x0020_1">
  <metadata id="CorelCorpID_0Corel-Layer"/>
  <polygon class="fil0" points="49,19 52,19 52,33 49,33 "/>
  <polygon id="1" class="fil0" points="84,19 84,33 81,33 74,25 74,33 71,33 71,19 74,19 81,27 81,19 "/>
  <path id="2" class="fil0" d="M103 19l6 0c1,0 3,1 4,1 1,1 2,1 2,2 1,1 1,3 1,4 0,1 0,2 -1,3 0,1 -1,2 -2,3 -1,0 -3,1 -4,1l-6 0 0 -14zm6 11c1,0 2,0 3,-1 1,-1 1,-2 1,-3 0,-1 0,-2 -1,-3 -1,-1 -2,-1 -3,-1l-3 0 0 8 3 0z"/>
  <path id="3" class="fil0" d="M143 30l-6 0 -1 3 -3 0 6 -14 3 0 6 14 -3 0 -2 -3zm-1 -3l-2 -5 -2 5 4 0z"/>
  <path id="4" class="fil0" d="M174 26l3 0 0 5c-1,1 -2,1 -2,1 -1,1 -2,1 -3,1 -2,0 -3,-1 -4,-1 -1,-1 -2,-1 -3,-3 0,-1 -1,-2 -1,-3 0,-1 1,-3 1,-4 1,-1 2,-1 3,-2 1,-1 2,-1 4,-1 1,0 2,0 3,1 1,0 2,1 2,1l-2 2c-1,-1 -2,-1 -3,-1 -1,0 -2,0 -2,0 -1,1 -2,1 -2,2 0,0 0,1 0,2 0,1 0,1 0,2 0,1 1,1 2,2 0,0 1,0 2,0 1,0 2,0 2,0l0 -4z"/>
  <path id="5" class="fil0" d="M204 33l-2 -4 0 0 -3 0 0 4 -3 0 0 -14 6 0c1,0 2,0 3,1 1,0 1,1 2,2 0,0 1,1 1,2 0,1 -1,2 -1,3 -1,0 -1,1 -2,1l3 5 -4 0zm0 -9c0,-1 0,-1 0,-2 -1,0 -2,0 -2,0l-3 0 0 4 3 0c0,0 1,0 2,0 0,-1 0,-1 0,-2z"/>
  <path id="6" class="fil0" d="M235 30l-6 0 -2 3 -3 0 6 -14 3 0 6 14 -3 0 -1 -3zm-1 -3l-2 -5 -2 5 4 0z"/>
  <g id="_1962923955440">
   <g>
    <path class="fil1" d="M11 3c0,2 2,4 4,4 1,0 3,-2 3,-4 0,-2 -2,-3 -3,-3 -2,0 -4,1 -4,3z"/>
    <path class="fil2" d="M15 7l0 -7c1,0 3,1 3,3 0,2 -2,4 -3,4z"/>
   </g>
   <path class="fil3" d="M24 38c3,-3 5,-5 5,-9 0,-4 -2,-6 -5,-9l-3 -3c1,1 2,2 2,4 0,0 0,1 0,2 0,2 -1,4 -2,6 0,0 0,0 0,0 0,0 0,0 0,0 1,2 2,4 2,6 0,1 0,2 0,2 0,2 -1,3 -2,4l3 -3z"/>
   <path class="fil4" d="M9 17c-2,1 -3,3 -3,6 0,2 1,4 2,6 0,0 0,0 1,0l0 0 3 -3 3 -3 -3 -3 -3 -3z"/>
   <polygon class="fil5" points="15,23 18,26 21,29 18,32 15,35 12,32 9,29 12,26 "/>
   <path class="fil6" d="M15 35l-3 -3 -3 -3c0,0 0,0 0,0l-1 0c-1,2 -2,4 -2,6 0,2 1,4 2,6l1 0 0 0 3 -3 3 -3z"/>
   <path class="fil7" d="M20 16l0 0 1 1 -3 3 -3 3 -3 -3 -3 -3 1 -1 4 -5c0,0 1,0 1,0l5 5z"/>
   <path class="fil3" d="M6 38c-3,-3 -6,-5 -6,-9 0,-3 1,-5 3,-6l3 3 3 3 0 0 0 0 0 0 0 0 0 0c-1,0 -1,0 -1,0 -1,2 -2,4 -2,6 0,1 0,2 0,2 1,2 1,3 2,4l-2 -3z"/>
   <path class="fil8" d="M15 35l3 3 3 3 -1 1 -5 5c0,0 -1,0 -1,0l-5 -5 0 -1 0 0 3 -3 3 -3z"/>
   <path class="fil9" d="M23 23c0,-2 0,-4 -2,-6l0 0 -3 3 -3 3c0,0 0,0 0,0l3 3 2 2c0,1 1,1 1,1l0 0c1,-2 2,-4 2,-6z"/>
   <path class="fil6" d="M21 41c0,0 0,0 0,0 2,-2 2,-4 2,-6 0,-2 0,-4 -2,-6l0 0c0,0 0,0 -1,0l-2 3c-1,1 -2,1 -3,2l0 1 3 3 3 3z"/>
   <line class="fil10" x1="15" y1="10" x2="15" y2= "47" />
   <path class="fil11" d="M18 20l3 -3 -1 -1 0 0 -5 -5c0,0 0,0 0,0l0 12 3 -3 0 0z"/>
   <path class="fil12" d="M21 29c0,0 -1,0 -1,-1l-2 -2 -3 -3c0,0 0,0 0,0l0 0 0 12 2 -2c0,0 0,-1 1,-1l2 -3c1,0 1,0 1,0z"/>
   <path class="fil13" d="M21 41l-3 -3 -3 -3 0 12c0,0 0,0 0,0l5 -5 1 -1z"/>
  </g>
 </g>
</svg>
