<?xml version="1.0" encoding="UTF-8"?>
<!DOCTYPE svg PUBLIC "-//W3C//DTD SVG 1.1//EN" "http://www.w3.org/Graphics/SVG/1.1/DTD/svg11.dtd">
<!-- Creator: CorelDRAW X8 -->
<svg xmlns="http://www.w3.org/2000/svg" xml:space="preserve" width="3.21211in" height="3.70872in" version="1.1" style="shape-rendering:geometricPrecision; text-rendering:geometricPrecision; image-rendering:optimizeQuality; fill-rule:evenodd; clip-rule:evenodd"
viewBox="0 0 503 581"
 xmlns:xlink="http://www.w3.org/1999/xlink">
 <defs>
  <style type="text/css">
   <![CDATA[
    .str0 {stroke:#B43566;stroke-width:0.469685}
    .fil12 {fill:#FEFEFE}
    .fil15 {fill:#BDBFC1}
    .fil3 {fill:#F89D32}
    .fil10 {fill:#F2F3F3}
    .fil2 {fill:#E74E53}
    .fil17 {fill:#E8E5E6}
    .fil14 {fill:#E28738}
    .fil11 {fill:#D9D9D9}
    .fil8 {fill:#B43566}
    .fil5 {fill:#8F3153}
    .fil19 {fill:#AAB0B3}
    .fil0 {fill:#888C8E}
    .fil7 {fill:#727678}
    .fil4 {fill:#6670B3}
    .fil18 {fill:#14171F}
    .fil20 {fill:#151B29}
    .fil16 {fill:#26314D}
    .fil1 {fill:#6F7AD2}
    .fil13 {fill:#E28738;fill-rule:nonzero}
    .fil9 {fill:#B43566;fill-rule:nonzero}
    .fil6 {fill:#8F3153;fill-rule:nonzero}
   ]]>
  </style>
 </defs>
 <g id="Layer_x0020_1">
  <metadata id="CorelCorpID_0Corel-Layer"/>
  <g id="_1962957394496">
   <g>
    <path class="fil0" d="M363 285c17,-21 35,-43 44,-54 9,-10 9,-10 9,-10 2,-2 5,0 6,3 0,0 0,1 0,1 0,1 0,1 -9,12 -9,10 -27,31 -35,42 -9,10 -9,11 -10,11 0,-1 0,-3 0,-3 -1,-1 -4,-1 -5,-2z"/>
    <path class="fil1" d="M367 286c-2,-2 -4,-2 -5,-1l0 0 -39 46 0 1c1,-1 1,-1 2,-1 1,0 2,1 2,1 1,1 2,2 2,3 0,1 0,2 0,2l0 1c13,-16 26,-31 39,-47 0,0 0,0 0,0 0,0 1,0 1,0 0,-2 0,-4 -2,-5z"/>
    <path class="fil2" d="M328 332c-2,-2 -4,-2 -6,-1 -1,2 0,5 2,6 2,2 4,2 5,1 0,0 0,0 0,0 1,-2 0,-4 -1,-6z"/>
    <path class="fil3" d="M328 332c-2,-1 -4,-2 -5,0 -1,1 -1,4 1,5 2,2 4,2 5,1 0,0 0,0 0,-1 1,-1 0,-3 -1,-5z"/>
   </g>
   <g>
    <path class="fil0" d="M372 289c18,-21 36,-43 44,-54 9,-10 9,-10 9,-10 3,-2 5,0 6,3 0,0 0,1 0,1 0,1 0,1 -9,12 -9,10 -26,31 -35,42 -9,10 -9,11 -9,11 0,-1 0,-3 -1,-3 -1,-1 -4,-1 -5,-2z"/>
    <path class="fil1" d="M376 290c-1,-2 -4,-2 -5,-1l0 0 -39 46 0 1c1,-1 2,-1 2,-1 1,0 2,1 3,1 0,1 1,2 1,3 0,1 0,2 0,2l0 1c13,-16 26,-31 39,-47 1,0 1,0 1,0 0,0 0,0 0,0 1,-1 0,-4 -2,-5z"/>
    <path class="fil2" d="M337 336c-2,-2 -4,-2 -5,0 -1,1 -1,4 1,5 2,2 4,3 5,1 0,0 0,0 0,0 1,-2 1,-4 -1,-6z"/>
    <path class="fil3" d="M337 336c-2,-1 -4,-2 -5,0 -1,1 -1,4 1,5 2,2 4,2 5,1 0,0 0,0 0,-1 1,-1 0,-3 -1,-5z"/>
   </g>
   <g>
    <path class="fil0" d="M369 280c17,-21 35,-43 44,-54 9,-10 9,-10 9,-10 2,-2 5,0 5,2 1,1 1,2 1,2 0,1 0,1 -9,12 -9,10 -27,31 -35,41 -9,11 -9,12 -10,11 0,0 0,-2 0,-3 -1,0 -4,-1 -5,-1z"/>
    <path class="fil4" d="M373 280c-2,-1 -4,-2 -5,0l0 0 -39 46 0 0c1,0 1,0 2,0 1,0 2,1 2,1 1,1 2,2 2,3 0,1 0,2 0,2l0 1c13,-16 26,-31 39,-47 0,0 0,0 0,0 0,0 0,0 1,0 0,-2 0,-4 -2,-6z"/>
    <path class="fil2" d="M334 327c-2,-2 -5,-2 -6,-1 -1,2 0,4 2,6 1,2 4,2 5,1 0,0 0,0 0,0 1,-2 0,-4 -1,-6z"/>
    <path class="fil3" d="M334 327c-2,-1 -4,-2 -5,0 -1,1 -1,3 1,5 1,2 4,2 5,1 0,0 0,-1 0,-1 1,-1 0,-3 -1,-5z"/>
   </g>
   <g>
    <path class="fil5 str0" d="M351 328l-9 11c1,-1 3,0 4,1 2,2 3,4 2,5l12 -14 25 -29 1 -2 1 -1c-1,0 -3,0 -4,-1 -2,-2 -2,-3 -2,-5l-4 4 -1 2 -25 29z"/>
    <path class="fil6" d="M351 329l-8 10c0,-1 0,-1 1,0 1,0 2,0 3,1 0,1 1,2 1,3 0,0 0,1 0,1 13,-15 26,-30 38,-45 0,0 -1,0 -1,0 -1,0 -2,-1 -2,-1 -1,-1 -2,-2 -2,-3 0,0 0,-1 0,-1l-30 35zm-10 10l40 -46 0 0c0,1 0,2 1,2 0,1 0,2 1,2 1,1 1,1 2,2 1,0 1,0 2,0l0 0c-13,16 -26,31 -39,47l0 -1c0,0 0,-1 0,-2 -1,-1 -1,-2 -2,-3 -1,0 -1,-1 -2,-1 -1,0 -2,0 -2,0l-1 0z"/>
    <path class="fil2" d="M346 340c-1,-2 -4,-2 -5,-1 -1,2 0,5 1,6 2,2 5,2 6,1 0,0 0,0 0,0 1,-2 0,-4 -2,-6z"/>
    <path class="fil3" d="M346 340c-1,-1 -4,-2 -5,0 -1,1 0,3 2,5 1,2 3,2 4,1 1,0 1,0 1,-1 0,-1 0,-3 -2,-5z"/>
    <path class="fil7" d="M382 293c17,-21 35,-43 44,-54 8,-10 8,-10 9,-10 2,-2 4,0 5,3 1,0 1,1 0,1 0,1 0,1 -9,12 -8,10 -26,31 -35,41 -8,11 -9,12 -9,11 0,0 0,-2 -1,-3 0,0 -3,0 -4,-1z"/>
    <path class="fil5" d="M386 293c-2,-1 -4,-2 -5,0 -1,1 -1,4 1,6 2,1 4,2 5,0 0,0 0,0 0,0 1,-2 1,-4 -1,-6z"/>
   </g>
   <g>
    <path class="fil8 str0" d="M347 320l-10 11c2,-1 4,-1 5,1 2,1 2,3 2,5l11 -14 25 -30 2 -2 1 0c-2,0 -3,-1 -4,-2 -2,-1 -2,-3 -2,-5l-4 5 -1 1 -25 30z"/>
    <path class="fil9" d="M347 320l-9 10c1,0 1,0 2,0 1,0 2,1 2,1 1,1 2,2 2,3 0,1 0,1 0,2 13,-15 25,-30 38,-45 -1,0 -1,0 -2,0 0,-1 -1,-1 -2,-2 0,-1 -1,-1 -1,-2 0,-1 -1,-1 -1,-2l-29 35zm-10 10l39 -46 1 1c0,0 0,1 0,2 1,0 1,1 2,2 0,0 1,1 2,1 0,0 1,0 2,0l0 1c-13,15 -26,31 -39,46l-1 0c1,-1 1,-2 0,-3 0,0 0,-1 -1,-2 -1,-1 -2,-1 -2,-1 -1,-1 -2,-1 -2,0l-1 -1z"/>
    <path class="fil2" d="M342 331c-2,-1 -4,-2 -5,0 -1,1 -1,4 1,6 2,2 4,2 5,0 1,0 1,0 1,0 1,-1 0,-4 -2,-6z"/>
    <path class="fil3" d="M342 332c-2,-2 -4,-2 -5,-1 -1,1 0,4 1,6 2,1 4,1 5,0 0,0 0,0 0,0 1,-2 1,-4 -1,-5z"/>
    <path class="fil0" d="M378 284c17,-21 35,-43 44,-53 8,-11 8,-11 8,-11 3,-1 5,1 6,3 0,1 0,1 0,2 0,0 0,1 -9,11 -9,11 -26,32 -35,42 -9,10 -9,11 -9,11 0,0 0,-2 -1,-3 0,-1 -4,-1 -4,-2z"/>
    <path class="fil8" d="M382 285c-2,-2 -4,-2 -6,-1 -1,2 0,4 2,6 1,2 4,2 5,1 0,0 0,-1 0,-1 1,-1 0,-3 -1,-5z"/>
   </g>
   <g>
    <path class="fil5 str0" d="M359 333l-9 11c1,-1 3,-1 5,1 1,1 2,4 1,5l12 -14 25 -30 1 -1 1 -1c-1,0 -3,-1 -4,-2 -1,-1 -2,-3 -2,-4l-3 4 -2 1 -25 30z"/>
    <path class="fil6" d="M359 333l-8 10c0,0 1,0 1,0 1,0 2,1 3,2 1,1 1,2 1,2 1,1 1,2 1,2 12,-15 25,-30 37,-45 0,0 -1,0 -1,0 -1,-1 -2,-1 -2,-2 -1,0 -1,-1 -2,-2 0,0 0,-1 0,-2l-30 35zm-9 11l39 -46 0 0c0,0 1,1 1,2 0,1 1,1 1,2 1,1 1,1 2,1 1,1 1,1 2,1l0 0c-13,15 -26,31 -39,46l0 0c0,-1 0,-1 0,-2 0,-1 -1,-2 -2,-3 0,-1 -1,-1 -2,-1 -1,0 -1,0 -2,0l0 0z"/>
    <path class="fil2" d="M355 345c-2,-2 -5,-2 -6,-1 -1,2 0,4 2,6 1,2 4,2 5,1 0,0 0,-1 0,-1 1,-1 0,-4 -1,-5z"/>
    <path class="fil3" d="M355 345c-2,-2 -4,-2 -5,-1 -1,2 -1,4 1,6 1,1 4,2 5,0 0,0 0,0 0,0 1,-1 0,-4 -1,-5z"/>
    <path class="fil7" d="M390 297c17,-21 35,-42 44,-53 9,-11 9,-11 9,-11 2,-1 5,1 5,3 1,1 1,1 1,2 0,0 -1,1 -9,11 -9,11 -27,32 -35,42 -9,11 -9,12 -10,11 0,0 0,-2 0,-3 -1,-1 -4,-1 -5,-2z"/>
    <path class="fil5" d="M394 298c-2,-2 -4,-2 -5,0 -1,1 -1,4 1,5 2,2 4,2 5,1 0,0 0,0 1,0 0,-2 0,-4 -2,-6z"/>
   </g>
  </g>
  <g id="_1962974714336">
   <g>
    <path class="fil0" d="M254 133c20,-16 41,-32 51,-40 10,-8 10,-8 10,-8 2,-1 4,2 5,4 0,1 0,1 -1,2 0,0 0,1 -10,8 -10,8 -31,24 -41,31 -10,8 -10,9 -10,9 0,-1 0,-3 0,-3 -1,-1 -4,-2 -4,-3z"/>
    <path class="fil1" d="M257 135c-1,-2 -3,-3 -4,-2l0 0 -45 34 0 1c0,-1 1,-1 2,0 0,0 1,1 2,1 0,1 0,2 0,3 0,1 0,2 0,2l0 1c15,-12 30,-23 45,-35 0,0 0,0 0,0 0,0 0,0 1,0 1,-1 1,-4 -1,-5z"/>
    <path class="fil2" d="M212 169c-1,-2 -4,-3 -5,-1 -1,1 -1,3 0,5 1,2 4,3 5,2 0,0 0,0 0,0 1,-2 1,-4 0,-6z"/>
    <path class="fil3" d="M212 169c-1,-1 -3,-2 -5,-1 -1,1 -1,3 0,5 2,2 3,3 5,2 0,-1 0,-1 0,-1 1,-1 1,-3 0,-5z"/>
   </g>
   <g>
    <path class="fil0" d="M262 137c20,-15 41,-32 51,-40 10,-7 10,-7 10,-8 2,0 4,2 4,4 1,1 0,1 0,2 0,0 0,1 -10,9 -11,7 -31,23 -41,31 -10,7 -10,8 -10,8 0,-1 0,-2 -1,-3 0,-1 -3,-2 -3,-3z"/>
    <path class="fil1" d="M265 139c-1,-2 -3,-3 -4,-2l0 0 -46 34 1 1c0,0 1,0 2,0 0,0 1,1 1,2 1,0 1,1 1,2 0,1 0,2 0,2l0 1c15,-12 30,-23 45,-35 0,0 0,0 0,0 0,0 0,0 0,0 1,-1 1,-3 0,-5z"/>
    <path class="fil2" d="M220 173c-1,-2 -4,-2 -5,-1 -1,1 -1,3 0,5 1,2 3,3 5,2 0,0 0,0 0,0 1,-1 1,-4 0,-6z"/>
    <path class="fil3" d="M220 174c-2,-2 -4,-3 -5,-2 -1,1 -1,3 0,5 1,2 3,3 5,2 0,0 0,0 0,-1 1,-1 1,-3 0,-4z"/>
   </g>
   <g>
    <path class="fil0" d="M266 131c20,-16 41,-32 51,-40 10,-8 10,-8 10,-8 3,-1 4,2 5,4 0,1 0,1 0,2 -1,0 -1,1 -11,8 -10,8 -30,24 -41,31 -10,8 -10,9 -10,9 0,-1 0,-3 0,-3 -1,-1 -3,-2 -4,-3z"/>
    <path class="fil4" d="M269 133c-1,-2 -3,-3 -4,-2l0 0 -45 34 0 1c0,-1 1,-1 2,0 0,0 1,1 2,1 0,1 0,2 1,3 0,1 -1,2 -1,2l0 1c15,-12 30,-23 45,-35 0,0 0,0 0,0 0,0 1,0 1,0 1,-1 1,-4 -1,-5z"/>
    <path class="fil2" d="M224 167c-1,-2 -3,-3 -5,-1 -1,1 -1,3 0,5 1,2 4,3 5,2 0,0 0,0 0,0 1,-2 1,-4 0,-6z"/>
    <path class="fil3" d="M224 167c-1,-1 -3,-2 -5,-1 -1,1 -1,3 0,5 2,2 4,3 5,2 0,-1 0,-1 0,-1 1,-1 1,-3 0,-5z"/>
   </g>
   <g>
    <path class="fil5 str0" d="M234 167l-10 8c1,-1 3,0 4,2 1,2 1,4 0,5l14 -11 29 -22 1 -1 1 -1c-1,0 -2,0 -3,-2 -1,-1 -1,-3 -1,-4l-4 3 -2 1 -29 22z"/>
    <path class="fil6" d="M234 167l-9 7c0,0 1,1 1,1 1,0 1,1 2,2 1,1 1,2 1,3 0,0 0,0 0,1 14,-11 29,-22 43,-33 0,-1 0,-1 -1,-1 0,0 -1,-1 -1,-2 -1,0 -1,-1 -1,-2 -1,-1 -1,-1 0,-2l-35 26zm-10 8l45 -35 0 1c0,0 0,1 0,2 0,1 1,1 1,2 0,1 1,1 1,2 1,0 2,0 2,0l0 1c-15,11 -30,23 -45,34l0 0c0,-1 0,-2 0,-2 0,-1 0,-2 0,-3 -1,-1 -2,-1 -2,-2 -1,0 -2,0 -2,0l0 0z"/>
    <path class="fil2" d="M228 177c-1,-2 -4,-3 -5,-2 -1,1 -1,4 0,6 1,2 4,2 5,1 0,0 0,0 0,0 1,-1 1,-3 0,-5z"/>
    <path class="fil3" d="M228 177c-1,-2 -3,-3 -5,-2 -1,1 -1,4 0,5 1,2 3,3 5,2 0,0 0,0 0,0 1,-1 1,-3 0,-5z"/>
    <path class="fil7" d="M270 141c20,-16 41,-32 51,-40 10,-8 10,-8 10,-8 2,-1 4,1 5,4 0,0 0,1 -1,1 0,1 0,1 -10,9 -10,8 -31,23 -41,31 -10,7 -10,8 -10,8 0,0 0,-2 0,-3 -1,-1 -4,-2 -4,-2z"/>
    <path class="fil5" d="M273 142c-1,-2 -3,-3 -4,-2 -2,2 -2,4 0,6 1,2 3,3 4,2 0,-1 0,-1 1,-1 1,-1 1,-3 -1,-5z"/>
   </g>
   <g>
    <path class="fil8 str0" d="M240 161l-11 8c1,-1 3,0 4,1 1,2 1,4 0,5l14 -10 29 -22 1 -1 1 -1c-1,0 -2,-1 -3,-2 -1,-2 -1,-3 -1,-5l-4 3 -1 2 -29 22z"/>
    <path class="fil9" d="M240 161l-10 7c0,0 1,0 1,0 1,1 2,1 2,2 1,1 1,2 1,3 0,1 0,1 0,2 15,-12 29,-23 44,-34 -1,0 -1,0 -2,0 0,-1 -1,-1 -1,-2 -1,-1 -1,-2 -1,-2 0,-1 0,-2 0,-2l-34 26zm-11 7l45 -34 0 0c0,1 0,2 0,2 1,1 1,2 1,3 1,0 1,1 2,1 0,1 1,1 1,1l1 0c-16,12 -31,23 -46,35l0 -1c1,0 1,-1 1,-2 0,-1 -1,-2 -1,-2 -1,-1 -1,-2 -2,-2 -1,0 -1,-1 -2,0l0 -1z"/>
    <path class="fil2" d="M233 170c-1,-2 -3,-3 -5,-1 -1,1 -1,3 0,5 2,2 4,3 5,2 0,0 0,0 0,0 2,-2 1,-4 0,-6z"/>
    <path class="fil3" d="M233 170c-1,-1 -3,-2 -4,-1 -2,1 -2,3 0,5 1,2 3,3 4,2 0,0 0,-1 0,-1 1,-1 1,-3 0,-5z"/>
    <path class="fil0" d="M275 134c20,-16 41,-32 51,-40 10,-8 10,-8 10,-8 3,0 5,2 5,4 0,1 0,1 0,2 0,0 -1,1 -11,8 -10,8 -30,24 -40,31 -10,8 -11,9 -11,9 0,-1 0,-2 0,-3 0,-1 -3,-2 -4,-3z"/>
    <path class="fil8" d="M279 136c-2,-2 -4,-3 -5,-2 -1,1 -1,4 0,6 1,2 3,2 5,1 0,0 0,0 0,0 1,-1 1,-3 0,-5z"/>
   </g>
   <g>
    <path class="fil5 str0" d="M243 170l-11 8c2,-1 3,0 4,2 1,1 2,3 1,5l13 -11 29 -22 2 -1 1 -1c-2,0 -3,-1 -4,-2 -1,-2 -1,-3 -1,-5l-3 3 -2 2 -29 22z"/>
    <path class="fil6" d="M243 170l-10 7c1,0 1,0 1,0 1,1 2,1 3,2 0,1 0,2 1,3 0,1 -1,1 -1,2 15,-11 29,-23 44,-34 0,0 -1,0 -1,0 -1,-1 -1,-1 -2,-2 0,-1 -1,-2 -1,-2 0,-1 0,-1 0,-2l-34 26zm-11 7l45 -34 1 1c0,0 0,1 0,2 0,0 0,1 1,2 0,0 0,1 1,1 1,1 1,1 2,1l0 0c-15,12 -30,23 -45,35l-1 -1c1,0 1,-1 1,-2 0,-1 0,-2 -1,-2 0,-1 -1,-2 -2,-2 0,0 -1,0 -2,0l0 -1z"/>
    <path class="fil2" d="M236 179c-1,-2 -3,-2 -4,-1 -2,1 -2,3 0,5 1,2 3,3 4,2 1,0 1,0 1,0 1,-1 1,-4 -1,-6z"/>
    <path class="fil3" d="M236 180c-1,-2 -3,-3 -4,-2 -1,1 -1,3 0,5 1,2 3,3 4,2 0,0 0,0 0,-1 1,-1 1,-3 0,-4z"/>
    <path class="fil7" d="M278 143c20,-15 41,-32 51,-40 10,-7 10,-7 11,-7 2,-1 4,1 4,3 0,1 0,1 0,2 0,0 0,1 -11,9 -10,7 -30,23 -40,31 -10,7 -11,8 -11,8 0,-1 1,-2 0,-3 0,-1 -3,-2 -4,-3z"/>
    <path class="fil5" d="M282 145c-1,-2 -3,-3 -5,-2 -1,1 -1,4 0,6 2,2 4,2 5,1 0,0 0,0 0,0 1,-1 1,-3 0,-5z"/>
   </g>
  </g>
  <polygon class="fil10" points="450,227 397,297 397,339 450,274 "/>
  <path class="fil11" d="M0 35l45 330 9 57 363 159 33 -201 -65 -25 -16 125 -262 -103 -36 -264 140 28 3 -58c1,-7 1,-12 -4,-14 -5,-2 -14,-2 -26,-4 -28,-5 -82,-13 -116,-18 -35,-6 -54,-10 -68,-12z"/>
  <polygon class="fil12" points="107,377 71,113 211,141 385,355 373,481 "/>
  <polygon class="fil3" points="298,86 211,141 385,355 446,271 "/>
  <polygon class="fil13" points="279,98 434,288 433,289 278,98 "/>
  <polygon class="fil13" points="282,96 436,285 436,286 281,96 "/>
  <polygon class="fil13" points="286,94 439,282 438,283 285,94 "/>
  <polygon class="fil13" points="289,92 441,279 440,280 288,92 "/>
  <polygon class="fil13" points="292,90 443,276 442,277 291,90 "/>
  <polygon class="fil13" points="295,88 445,273 444,274 294,88 "/>
  <polygon class="fil14" points="275,100 244,120 409,323 430,293 "/>
  <polygon class="fil13" points="216,137 389,350 388,351 215,138 "/>
  <path class="fil15" d="M210 69c-70,-11 -141,-21 -175,-27l-35 -7 23 -8c18,-5 50,-17 68,-23 8,-2 13,-5 19,-4l190 25 -17 9c-14,7 -45,22 -73,35z"/>
  <polygon class="fil0" points="300,25 298,86 211,141 210,69 "/>
  <polygon class="fil13" points="221,134 392,346 392,347 220,135 "/>
  <polygon class="fil13" points="225,131 396,341 395,342 224,132 "/>
  <polygon class="fil13" points="230,128 399,336 398,337 229,129 "/>
  <polygon class="fil13" points="235,125 403,331 402,332 234,126 "/>
  <polygon class="fil13" points="240,122 406,327 405,328 239,123 "/>
  <polygon class="fil15" points="503,286 446,271 385,355 450,381 "/>
  <polygon class="fil0" points="450,381 416,581 470,463 503,286 "/>
  <polygon class="fil16" points="126,381 92,409 118,438 149,410 126,381 "/>
  <polygon class="fil17" points="114,345 126,381 192,325 189,286 165,305 163,306 "/>
  <polygon class="fil10" points="174,341 126,381 126,381 126,381 149,410 198,366 219,352 192,325 "/>
  <path class="fil10" d="M197 339l-2 -1c-2,-1 -4,-1 -6,-2l-15 12 6 6 17 -15z"/>
  <polygon class="fil12" points="137,381 165,358 169,363 142,387 "/>
  <polygon class="fil17" points="146,392 174,369 178,374 152,398 "/>
  <polygon class="fil18" points="149,410 118,438 268,504 291,474 "/>
  <polygon class="fil17" points="327,389 219,352 157,413 291,474 291,437 "/>
  <polygon class="fil12" points="231,388 238,390 256,371 249,369 "/>
  <polygon class="fil11" points="200,419 223,396 229,399 206,422 "/>
  <polygon class="fil11" points="216,426 238,404 245,406 223,430 "/>
  <g id="_1962968173792">
   <path class="fil5 str0" d="M130 426l-11 10c2,-1 4,0 5,1 1,2 2,4 1,6l13 -13 28 -27 1 -2 1 -1c-1,0 -3,0 -4,-2 -1,-1 -1,-3 -1,-4l-4 3 -1 2 -28 27z"/>
   <path class="fil6" d="M130 426l-10 9c1,0 1,0 2,0 1,1 1,1 2,2 1,1 1,2 2,3 0,1 0,1 0,2 14,-14 28,-28 41,-41 0,-1 -1,-1 -1,-1 -1,0 -1,-1 -2,-2 0,0 -1,-1 -1,-2 0,0 0,-1 0,-2l-33 32zm-11 10l44 -43 0 1c0,0 0,1 0,2 1,1 1,1 2,2 0,1 1,1 1,2 1,0 2,0 2,0l0 0c-14,15 -29,29 -43,43l0 0c0,-1 0,-2 0,-3 0,-1 -1,-2 -1,-2 -1,-1 -2,-2 -2,-2 -1,0 -2,0 -2,0l-1 0z"/>
   <path class="fil2" d="M124 437c-2,-2 -4,-2 -5,-1 -1,1 -1,4 1,6 1,2 4,3 5,1 0,0 0,0 0,0 1,-2 1,-4 -1,-6z"/>
   <path class="fil3" d="M124 437c-2,-1 -4,-2 -5,-1 -1,2 -1,4 1,6 1,2 3,2 5,1 0,0 0,0 0,0 1,-2 0,-4 -1,-6z"/>
   <path class="fil7" d="M164 393c19,-19 39,-39 49,-49 9,-9 9,-9 9,-9 3,-2 5,1 6,3 0,1 0,1 0,2 0,0 -1,1 -10,10 -10,10 -29,29 -39,39 -10,9 -10,10 -10,10 0,-1 0,-3 -1,-3 0,-1 -3,-2 -4,-3z"/>
   <path class="fil8" d="M168 395c-2,-2 -4,-3 -5,-2 -2,2 -1,4 0,6 2,2 4,3 5,1 0,0 1,0 1,0 1,-1 0,-4 -1,-5z"/>
  </g>
  <g id="_1962968176736">
   <path class="fil5 str0" d="M138 431l-11 10c2,-1 4,-1 5,1 1,2 2,4 1,5l13 -13 28 -27 1 -1 1 -1c-1,0 -3,-1 -4,-2 -1,-2 -1,-3 -1,-5l-4 4 -1 1 -28 28z"/>
   <path class="fil6" d="M138 431l-10 9c1,0 1,0 2,0 1,0 2,1 2,2 1,1 1,2 2,3 0,0 0,1 0,1 14,-13 28,-27 41,-41 0,0 0,0 -1,0 -1,-1 -1,-1 -2,-2 0,-1 -1,-2 -1,-2 0,-1 0,-2 0,-2l-33 32zm-11 9l44 -42 0 0c0,1 0,2 0,3 1,0 1,1 2,2 0,0 1,1 1,1 1,0 2,1 2,1l0 0c-14,14 -28,28 -43,42l0 0c0,0 0,-1 0,-2 0,-1 -1,-2 -1,-3 -1,-1 -2,-1 -2,-1 -1,-1 -2,-1 -2,0l-1 -1z"/>
   <path class="fil2" d="M132 442c-2,-2 -4,-3 -5,-1 -1,1 -1,4 1,6 1,2 4,2 5,1 0,0 0,0 0,-1 1,-1 1,-3 -1,-5z"/>
   <path class="fil3" d="M132 442c-2,-2 -4,-2 -5,-1 -1,1 -1,4 1,5 1,2 3,3 5,1 0,0 0,0 0,0 1,-1 0,-3 -1,-5z"/>
   <path class="fil7" d="M172 398c19,-19 39,-39 49,-49 9,-10 9,-10 9,-10 3,-1 5,1 6,4 0,0 0,1 0,1 0,1 -1,1 -10,11 -10,10 -29,29 -39,38 -10,10 -10,11 -10,10 0,0 0,-2 -1,-3 0,-1 -3,-1 -4,-2z"/>
   <path class="fil8" d="M176 399c-2,-2 -4,-2 -5,-1 -2,1 -1,4 0,6 2,2 4,2 5,1 1,0 1,0 1,0 1,-2 0,-4 -1,-6z"/>
  </g>
  <g id="_1962968177376">
   <path class="fil0" d="M169 388c19,-19 39,-39 49,-49 9,-9 9,-9 9,-10 3,-1 5,2 6,4 0,1 0,1 0,2 0,0 0,0 -10,10 -10,10 -29,29 -39,38 -10,10 -10,11 -10,11 0,-1 0,-3 -1,-4 0,0 -3,-1 -4,-2z"/>
   <path class="fil8" d="M173 389c-2,-1 -4,-2 -5,-1l0 0 -44 43 1 0c0,0 1,0 2,0 0,0 1,1 2,1 1,1 1,2 1,3 0,1 0,2 0,2l0 1c15,-14 29,-28 43,-43 0,0 0,0 0,0 1,0 1,0 1,0 1,-1 0,-4 -1,-6z"/>
   <path class="fil2" d="M129 432c-1,-2 -4,-2 -5,-1 -1,1 -1,4 1,6 1,2 4,2 5,1 0,0 0,0 0,0 1,-2 1,-4 -1,-6z"/>
   <path class="fil3" d="M129 432c-1,-1 -4,-2 -5,-1 -1,1 -1,4 1,6 1,2 3,2 5,1 0,0 0,0 0,0 1,-2 0,-4 -1,-6z"/>
  </g>
  <g id="_1962968178816">
   <path class="fil5 str0" d="M145 436l-10 10c1,-1 3,0 5,1 1,2 2,4 1,6l13 -13 28 -27 1 -2 1 -1c-1,0 -3,0 -4,-2 -1,-1 -2,-3 -1,-4l-4 3 -2 2 -28 27z"/>
   <path class="fil6" d="M145 436l-9 9c1,0 1,0 2,0 0,1 1,1 2,2 1,1 1,2 1,3 0,1 0,1 0,2 14,-14 28,-28 42,-41 0,-1 -1,-1 -1,-1 -1,0 -2,-1 -2,-2 -1,0 -1,-1 -1,-2 -1,0 -1,-1 -1,-2l-33 32zm-10 10l43 -43 1 1c0,0 0,1 0,2 0,1 1,1 1,2 1,1 1,1 2,2 1,0 1,0 2,0l0 0c-14,15 -29,29 -43,43l-1 0c1,-1 1,-2 1,-3 0,-1 -1,-2 -1,-2 -1,-1 -2,-2 -3,-2 0,0 -1,0 -2,0l0 0z"/>
   <path class="fil2" d="M140 447c-2,-2 -4,-2 -5,-1 -2,1 -1,4 0,6 2,2 4,3 6,1 0,0 0,0 0,0 1,-2 0,-4 -1,-6z"/>
   <path class="fil3" d="M140 447c-2,-1 -4,-2 -5,-1 -1,2 -1,4 0,6 2,2 4,2 5,1 0,0 0,0 1,0 0,-2 0,-4 -1,-6z"/>
   <path class="fil7" d="M179 403c20,-19 40,-39 49,-49 10,-9 10,-9 10,-9 3,-2 5,1 5,3 1,1 1,1 1,2 -1,0 -1,1 -11,10 -9,10 -29,29 -38,39 -10,9 -10,10 -11,10 0,-1 0,-3 0,-3 -1,-1 -4,-2 -5,-3z"/>
   <path class="fil5" d="M183 405c-1,-2 -3,-3 -5,-2 -1,2 -1,4 1,6 2,2 4,3 5,1 0,0 0,0 0,0 1,-1 1,-4 -1,-5z"/>
  </g>
  <g id="_1962968181952">
   <path class="fil8 str0" d="M143 426l-10 10c1,-1 3,0 4,2 2,1 2,4 1,5l13 -13 28 -27 1 -2 1 -1c-1,0 -2,0 -4,-2 -1,-1 -1,-3 -1,-4l-4 3 -1 2 -28 27z"/>
   <path class="fil9" d="M143 426l-9 9c0,0 0,0 1,1 1,0 2,0 2,1 1,1 2,2 2,3 0,1 0,1 0,2 14,-14 28,-28 42,-41 -1,0 -1,-1 -2,-1 -1,0 -1,-1 -2,-1 0,-1 -1,-2 -1,-3 0,0 0,-1 0,-2l-33 32zm-11 10l44 -42 0 0c0,1 0,1 0,2 1,1 1,2 2,2 0,1 1,1 1,2 1,0 2,0 2,0l0 1c-14,14 -28,28 -43,42l0 0c0,-1 0,-2 0,-3 0,-1 0,-1 -1,-2 -1,-1 -2,-2 -2,-2 -1,0 -2,0 -2,0l-1 0z"/>
   <path class="fil2" d="M137 437c-1,-2 -4,-2 -5,-1 -1,2 -1,4 1,6 1,2 4,3 5,1 0,0 0,0 0,0 1,-1 1,-4 -1,-6z"/>
   <path class="fil3" d="M137 438c-1,-2 -4,-3 -5,-1 -1,1 -1,3 1,5 1,2 4,2 5,1 0,0 0,0 0,0 1,-2 0,-4 -1,-5z"/>
   <path class="fil0" d="M177 394c19,-20 39,-40 49,-49 9,-10 9,-10 9,-10 3,-1 5,1 6,3 0,1 0,1 0,2 0,0 0,1 -10,10 -10,10 -29,29 -39,39 -10,9 -10,10 -10,10 0,-1 0,-2 -1,-3 0,-1 -3,-2 -4,-2z"/>
   <path class="fil8" d="M181 395c-2,-2 -4,-3 -5,-1 -1,1 -1,3 0,5 2,2 4,3 6,1 0,0 0,0 0,0 1,-1 0,-4 -1,-5z"/>
  </g>
  <g id="_1962968183424">
   <path class="fil0" d="M188 408c19,-20 39,-40 48,-49 10,-10 10,-10 10,-10 3,-2 5,1 6,3 0,1 0,1 0,2 0,0 -1,1 -11,10 -9,10 -29,29 -38,39 -10,9 -10,10 -11,10 0,-1 1,-2 0,-3 -1,-1 -4,-2 -4,-2z"/>
   <path class="fil1" d="M192 409c-2,-2 -4,-3 -6,-1l0 0 -43 42 0 0c1,0 2,0 2,0 1,0 2,1 3,2 0,0 1,1 1,2 0,1 0,2 0,3l0 0c14,-14 29,-28 43,-42 0,0 0,0 0,-1 0,0 0,0 0,0 1,-1 1,-4 0,-5z"/>
   <path class="fil2" d="M148 451c-2,-2 -4,-2 -5,-1 -2,2 -1,4 0,6 2,2 4,3 6,1 0,0 0,0 0,0 1,-1 1,-4 -1,-6z"/>
   <path class="fil3" d="M148 452c-2,-2 -4,-3 -5,-1 -1,1 -1,3 1,5 1,2 3,2 4,1 0,0 1,0 1,0 1,-2 0,-4 -1,-5z"/>
  </g>
  <g id="_1962968186240">
   <path class="fil0" d="M185 399c19,-20 39,-40 49,-49 10,-10 10,-10 10,-10 2,-1 5,1 5,3 0,1 0,1 0,2 0,0 0,1 -10,11 -10,9 -29,28 -39,38 -9,9 -10,10 -10,10 0,-1 0,-2 0,-3 -1,-1 -4,-2 -5,-2z"/>
   <path class="fil8" d="M189 400c-1,-2 -4,-3 -5,-1l0 0 -43 42 0 0c1,0 1,0 2,0 1,0 2,1 2,2 1,1 1,2 2,2 0,1 0,2 -1,3l1 0c14,-14 28,-28 43,-42 0,0 0,0 0,0 0,-1 0,-1 0,-1 1,-1 1,-3 -1,-5z"/>
   <path class="fil2" d="M146 442c-2,-2 -4,-2 -6,-1 -1,2 -1,4 1,6 2,2 4,3 5,1 0,0 0,0 1,0 1,-1 0,-4 -1,-6z"/>
   <path class="fil3" d="M145 443c-1,-2 -3,-3 -4,-1 -2,1 -1,3 0,5 2,2 4,2 5,1 0,0 0,0 0,0 1,-1 1,-4 -1,-5z"/>
  </g>
  <g id="_1962968186112">
   <g>
    <path class="fil0" d="M245 426c17,-21 36,-43 44,-53 9,-11 9,-11 9,-11 2,-1 5,1 6,3 0,1 0,1 0,2 0,0 0,1 -9,11 -9,11 -26,31 -35,42 -9,10 -9,11 -9,11 -1,-1 -1,-2 -1,-3 -1,-1 -4,-1 -5,-2z"/>
    <path class="fil1" d="M249 427c-1,-2 -4,-2 -5,-1l0 0 -39 46 0 1c1,-1 1,-1 2,-1 1,1 2,1 3,2 0,1 1,1 1,2 0,1 0,2 0,3l0 0c13,-15 26,-31 39,-46 0,0 0,0 1,0 0,-1 0,-1 0,-1 1,-1 0,-4 -2,-5z"/>
    <path class="fil2" d="M210 473c-2,-1 -4,-2 -5,0 -2,1 -1,4 1,6 2,2 4,2 5,0 0,0 0,0 0,0 1,-1 1,-4 -1,-6z"/>
    <path class="fil3" d="M210 474c-2,-2 -4,-2 -5,-1 -1,1 -1,4 1,5 2,2 4,2 5,1 0,0 0,0 0,0 1,-2 0,-4 -1,-5z"/>
   </g>
   <g>
    <path class="fil0" d="M254 430c18,-21 36,-43 44,-53 9,-11 9,-11 9,-11 3,-1 5,1 6,3 0,1 0,1 0,2 0,0 0,1 -9,11 -9,11 -26,31 -35,42 -9,10 -9,11 -9,11 0,-1 0,-2 -1,-3 -1,-1 -4,-1 -5,-2z"/>
    <path class="fil1" d="M259 431c-2,-2 -5,-2 -6,-1l0 0 -39 46 0 1c1,-1 2,-1 2,-1 1,1 2,1 3,2 1,1 1,1 1,2 1,1 1,2 0,3l1 0c13,-15 26,-31 39,-46 0,0 0,0 0,0 0,-1 0,-1 0,-1 1,-1 0,-4 -1,-5z"/>
    <path class="fil2" d="M219 477c-2,-1 -4,-2 -5,0 -1,1 -1,4 1,6 2,2 4,2 5,0 0,0 1,0 1,0 0,-1 0,-4 -2,-6z"/>
    <path class="fil3" d="M219 478c-2,-2 -4,-2 -5,-1 -1,1 -1,4 1,6 2,1 4,1 5,0 0,0 0,0 0,0 1,-2 0,-4 -1,-5z"/>
   </g>
   <g>
    <path class="fil0" d="M251 421c17,-21 36,-43 44,-53 9,-11 9,-11 9,-11 2,-2 5,1 6,3 0,0 0,1 0,1 0,1 0,1 -9,12 -9,11 -27,31 -35,42 -9,10 -9,11 -9,11 -1,-1 -1,-3 -1,-3 -1,-1 -4,-1 -5,-2z"/>
    <path class="fil4" d="M255 422c-2,-2 -4,-2 -5,-1l0 0 -39 46 0 1c1,-1 1,-1 2,-1 1,0 2,1 3,2 0,0 1,1 1,2 0,1 0,2 0,3l0 0c13,-16 26,-31 39,-46 0,0 0,-1 0,-1 1,0 1,0 1,0 0,-1 0,-4 -2,-5z"/>
    <path class="fil2" d="M216 468c-2,-2 -4,-2 -6,0 -1,1 0,4 2,6 2,1 4,2 5,0 0,0 0,0 0,0 1,-2 1,-4 -1,-6z"/>
    <path class="fil3" d="M216 468c-2,-1 -4,-1 -5,0 -1,1 -1,4 1,5 2,2 4,2 5,1 0,0 0,0 0,0 1,-2 0,-4 -1,-6z"/>
   </g>
   <g>
    <path class="fil5 str0" d="M233 470l-9 11c1,-1 3,-1 4,1 2,1 3,3 2,5l12 -14 25 -30 1 -2 1 -1c-1,1 -3,0 -4,-1 -1,-1 -2,-3 -2,-5l-3 4 -2 2 -25 30z"/>
    <path class="fil6" d="M233 470l-8 10c0,0 1,0 1,0 1,0 2,1 3,1 0,1 1,2 1,3 0,1 0,1 0,2 13,-15 26,-30 38,-45 0,0 -1,0 -1,-1 -1,0 -2,0 -2,-1 -1,-1 -1,-1 -2,-2 0,-1 0,-1 0,-2l-30 35zm-9 10l39 -46 0 0c0,1 0,2 1,3 0,0 0,1 1,2 1,0 1,1 2,1 1,0 1,0 2,0l0 1c-13,15 -26,31 -39,46l0 0c0,-1 0,-2 0,-3 0,-1 -1,-2 -2,-2 0,-1 -1,-1 -2,-2 -1,0 -2,0 -2,1l0 -1z"/>
    <path class="fil2" d="M229 481c-2,-1 -5,-2 -6,0 -1,1 0,4 1,6 2,1 5,2 6,0 0,0 0,0 0,0 1,-2 0,-4 -1,-6z"/>
    <path class="fil3" d="M228 482c-1,-2 -3,-2 -5,-1 -1,1 0,4 2,5 1,2 3,2 5,1 0,0 0,0 0,0 0,-2 0,-4 -2,-5z"/>
    <path class="fil7" d="M264 434c17,-21 35,-43 44,-53 8,-11 8,-11 9,-11 2,-2 4,1 5,3 1,0 1,1 1,2 0,0 -1,0 -9,11 -9,11 -27,31 -36,42 -8,10 -9,11 -9,11 0,-1 0,-2 -1,-3 0,-1 -3,-1 -4,-2z"/>
    <path class="fil5" d="M268 435c-2,-2 -4,-2 -5,-1 -1,2 -1,4 1,6 2,2 4,2 5,0 0,0 0,0 0,0 1,-1 1,-4 -1,-5z"/>
   </g>
   <g>
    <path class="fil8 str0" d="M229 461l-9 11c1,-1 3,-1 4,1 2,2 2,4 2,5l11 -14 26 -30 1 -1 1 -1c-2,0 -3,-1 -4,-2 -2,-1 -2,-3 -2,-4l-4 4 -1 1 -25 30z"/>
    <path class="fil9" d="M229 461l-9 10c1,0 1,0 2,0 1,0 2,1 2,2 1,1 2,2 2,3 0,0 0,1 0,1 13,-15 25,-30 38,-45 0,0 -1,0 -1,0 -1,0 -2,-1 -3,-2 0,0 -1,-1 -1,-2 0,0 0,-1 0,-2l-30 35zm-10 11l40 -46 0 0c0,0 0,1 0,2 1,1 1,1 2,2 0,1 1,1 2,1 0,1 1,1 2,1l0 0c-13,15 -26,31 -39,46l-1 0c1,-1 1,-1 1,-2 -1,-1 -1,-2 -2,-3 -1,-1 -2,-1 -2,-1 -1,0 -2,0 -2,0l-1 0z"/>
    <path class="fil2" d="M224 473c-1,-2 -4,-2 -5,-1 -1,2 -1,4 1,6 2,2 4,2 6,1 0,0 0,-1 0,-1 1,-1 0,-4 -2,-5z"/>
    <path class="fil3" d="M224 473c-2,-2 -4,-2 -5,-1 -1,2 0,4 1,6 2,2 4,2 5,0 0,0 0,0 1,0 0,-1 0,-3 -2,-5z"/>
    <path class="fil0" d="M260 426c17,-22 35,-43 44,-54 8,-10 8,-10 8,-11 3,-1 5,1 6,3 0,1 0,1 0,2 0,0 0,1 -9,11 -9,11 -26,32 -35,42 -9,11 -9,12 -9,11 0,0 0,-2 -1,-3 0,-1 -3,-1 -4,-1z"/>
    <path class="fil8" d="M264 426c-2,-2 -4,-2 -5,0 -2,1 -1,4 1,5 2,2 4,2 5,1 0,0 0,0 0,0 1,-2 0,-4 -1,-6z"/>
   </g>
   <g>
    <path class="fil5 str0" d="M241 474l-9 11c1,-1 3,0 5,1 1,2 2,4 1,5l12 -14 25 -29 1 -2 1 -1c-1,0 -3,0 -4,-1 -1,-2 -2,-4 -2,-5l-3 4 -2 2 -25 29z"/>
    <path class="fil6" d="M241 475l-8 9c0,0 1,0 1,1 1,0 2,0 3,1 1,1 1,2 2,3 0,0 0,1 0,1 12,-15 25,-30 37,-45 0,0 0,0 -1,0 -1,0 -1,-1 -2,-1 -1,-1 -1,-2 -2,-3 0,0 0,-1 0,-1l-30 35zm-9 10l39 -46 1 0c-1,1 0,1 0,2 0,1 1,2 1,2 1,1 2,1 2,2 1,0 1,0 2,0l0 0c-13,16 -26,31 -39,47l0 -1c0,0 0,-1 0,-2 0,-1 -1,-2 -2,-3 0,0 -1,-1 -2,-1 -1,0 -1,0 -2,0l0 0z"/>
    <path class="fil2" d="M237 486c-2,-2 -4,-2 -6,-1 -1,2 0,5 2,6 2,2 4,2 5,1 0,0 0,0 0,0 1,-2 0,-4 -1,-6z"/>
    <path class="fil3" d="M237 486c-2,-1 -4,-2 -5,0 -1,1 -1,3 1,5 2,2 4,2 5,1 0,0 0,-1 0,-1 1,-1 0,-3 -1,-5z"/>
    <path class="fil7" d="M272 439c17,-21 35,-43 44,-54 9,-10 9,-10 9,-10 2,-2 5,0 6,2 0,1 0,2 0,2 0,1 0,1 -9,12 -9,10 -27,31 -35,41 -9,11 -9,12 -9,11 -1,0 -1,-2 -1,-3 -1,0 -4,-1 -5,-1z"/>
    <path class="fil5" d="M276 439c-2,-1 -4,-2 -5,0 -1,1 -1,4 1,6 2,1 4,2 5,0 0,0 1,0 1,0 0,-2 0,-4 -2,-6z"/>
   </g>
  </g>
  <polygon class="fil19" points="344,368 291,433 291,474 344,409 "/>
  <polygon class="fil17" points="297,437 315,413 316,421 297,445 "/>
  <polygon class="fil17" points="297,450 316,426 316,434 297,458 "/>
  <polygon class="fil17" points="320,405 339,381 339,389 320,413 "/>
  <polygon class="fil17" points="320,418 339,394 339,402 320,426 "/>
  <polygon class="fil12" points="246,393 253,396 271,377 264,374 "/>
  <polygon class="fil12" points="172,351 191,335 196,340 177,356 "/>
  <polygon class="fil12" points="181,361 200,344 204,349 185,367 "/>
  <polygon class="fil20" points="126,381 117,343 82,370 92,409 "/>
  <polygon class="fil12" points="223,396 203,415 210,418 229,399 "/>
  <polygon class="fil12" points="238,404 221,422 228,425 245,406 "/>
  <polygon class="fil12" points="154,396 178,374 174,369 146,392 147,393 "/>
  <polygon class="fil20" points="291,474 291,433 265,466 268,504 "/>
  <polygon class="fil12" points="124,345 150,323 151,332 126,353 "/>
  <polygon class="fil12" points="160,316 185,296 185,305 160,325 "/>
  <polygon class="fil12" points="128,360 154,339 154,347 129,368 "/>
  <polygon class="fil12" points="161,332 187,312 186,321 162,341 "/>
  <polygon class="fil17" points="17,257 5,226 118,162 126,189 "/>
  <polygon class="fil10" points="17,257 126,189 147,210 45,281 "/>
  <polygon class="fil17" points="45,281 147,210 192,221 94,301 "/>
  <g id="_1962968201632">
   <g>
    <path class="fil0" d="M89 249c20,-16 41,-32 51,-40 10,-8 10,-8 10,-8 3,-1 4,1 5,3 0,1 0,2 0,2 -1,1 -1,1 -11,9 -10,8 -30,23 -41,31 -10,7 -10,8 -10,8 0,0 0,-2 0,-3 -1,-1 -3,-2 -4,-2z"/>
    <path class="fil1" d="M92 250c-1,-2 -3,-3 -4,-2l0 1 -45 34 0 0c0,0 1,0 2,0 1,0 1,1 2,2 0,1 1,2 1,2 0,1 -1,2 -1,3l0 0c15,-11 30,-23 45,-34 0,0 0,0 0,0 1,-1 1,-1 1,-1 1,-1 1,-3 -1,-5z"/>
    <path class="fil2" d="M47 285c-1,-2 -3,-3 -5,-2 -1,1 -1,4 0,6 2,2 4,2 5,1 0,0 0,0 0,0 1,-1 1,-4 0,-5z"/>
    <path class="fil3" d="M47 285c-1,-2 -3,-3 -5,-2 -1,1 -1,4 0,5 2,2 4,3 5,2 0,0 0,0 0,0 1,-1 1,-4 0,-5z"/>
   </g>
   <g>
    <path class="fil0" d="M97 253c20,-16 41,-32 51,-40 10,-8 10,-8 10,-8 2,-1 4,1 5,4 0,0 0,1 -1,1 0,1 0,1 -10,9 -10,8 -31,23 -41,31 -10,8 -10,9 -10,8 0,0 0,-2 0,-3 -1,-1 -4,-1 -4,-2z"/>
    <path class="fil1" d="M100 254c-1,-2 -3,-2 -4,-1l0 0 -45 34 0 0c0,0 1,0 2,0 0,1 1,1 2,2 0,1 0,2 0,3 0,0 0,1 0,2l0 0c15,-11 30,-23 45,-34 0,0 0,0 0,0 0,0 0,-1 1,-1 1,-1 1,-3 -1,-5z"/>
    <path class="fil2" d="M55 289c-1,-2 -4,-3 -5,-2 -1,1 -1,4 0,6 1,2 4,3 5,1 0,0 0,0 0,0 1,-1 1,-3 0,-5z"/>
    <path class="fil3" d="M55 289c-1,-2 -3,-3 -5,-2 -1,1 -1,4 0,6 1,1 3,2 5,1 0,0 0,0 0,0 1,-1 1,-3 0,-5z"/>
   </g>
   <g>
    <path class="fil0" d="M101 247c20,-16 41,-32 51,-40 10,-8 10,-8 10,-8 3,-1 4,1 5,3 0,1 0,2 0,2 -1,1 -1,1 -11,9 -10,8 -30,23 -40,31 -11,7 -11,8 -11,8 0,0 0,-2 0,-3 -1,-1 -3,-2 -4,-2z"/>
    <path class="fil4" d="M105 248c-2,-2 -4,-3 -5,-2l0 1 -45 34 0 0c1,0 1,0 2,0 1,0 1,1 2,2 0,1 1,2 1,2 0,1 -1,2 -1,3l0 0c15,-11 30,-23 45,-34 0,0 0,0 0,0 1,-1 1,-1 1,-1 1,-1 1,-3 0,-5z"/>
    <path class="fil2" d="M59 283c-1,-2 -3,-3 -5,-2 -1,1 -1,4 0,6 2,2 4,2 5,1 0,0 0,0 0,0 1,-1 1,-4 0,-5z"/>
    <path class="fil3" d="M59 283c-1,-2 -3,-3 -4,-2 -2,1 -2,4 -1,5 2,2 4,3 5,2 0,0 0,0 0,0 1,-1 1,-4 0,-5z"/>
   </g>
   <g>
    <path class="fil5 str0" d="M69 282l-10 8c1,0 3,0 4,2 1,2 1,4 0,5l14 -10 29 -22 1 -2 1 0c-1,0 -2,-1 -3,-2 -1,-2 -1,-4 -1,-5l-4 3 -2 1 -29 22z"/>
    <path class="fil6" d="M70 283l-10 7c0,0 1,0 1,0 1,0 2,1 2,2 1,1 1,2 1,3 0,0 0,1 0,1 14,-11 29,-22 44,-33 -1,0 -1,0 -2,-1 0,0 -1,-1 -1,-1 -1,-1 -1,-2 -1,-3 0,0 0,-1 0,-1l-34 26zm-11 7l45 -34 0 0c0,1 0,2 0,2 0,1 1,2 1,2 0,1 1,2 2,2 0,0 1,1 1,1l0 0c-15,11 -30,23 -45,34l0 0c0,0 1,-1 1,-2 0,-1 -1,-2 -1,-3 -1,-1 -1,-1 -2,-1 -1,-1 -2,-1 -2,0l0 -1z"/>
    <path class="fil2" d="M63 292c-1,-2 -3,-3 -5,-2 -1,1 -1,4 0,6 2,2 4,3 5,2 0,0 0,0 0,-1 1,-1 1,-3 0,-5z"/>
    <path class="fil3" d="M63 292c-1,-2 -3,-2 -5,-1 -1,1 -1,3 0,5 2,2 4,2 5,1 0,0 0,0 0,0 1,-1 1,-3 0,-5z"/>
    <path class="fil7" d="M105 256c20,-16 41,-32 51,-40 10,-8 10,-8 10,-8 3,-1 4,2 5,4 0,1 0,1 0,2 -1,0 -1,0 -11,8 -10,8 -30,23 -41,31 -10,8 -10,9 -10,8 0,0 0,-2 0,-3 -1,0 -3,-1 -4,-2z"/>
    <path class="fil5" d="M108 257c-1,-1 -3,-2 -4,-1 -1,1 -1,3 0,5 1,2 3,3 4,2 1,0 1,0 1,0 1,-1 1,-4 -1,-6z"/>
   </g>
   <g>
    <path class="fil8 str0" d="M75 276l-11 8c1,-1 3,0 4,2 1,2 1,4 0,5l14 -11 29 -22 2 -1 0 -1c-1,0 -2,0 -3,-2 -1,-1 -1,-3 -1,-4l-4 3 -1 1 -29 22z"/>
    <path class="fil9" d="M75 276l-10 7c1,0 1,1 1,1 1,0 2,1 2,2 1,1 1,2 1,3 0,0 0,1 0,1 15,-11 29,-22 44,-33 -1,-1 -1,-1 -1,-1 -1,0 -2,-1 -2,-2 -1,0 -1,-1 -1,-2 0,-1 0,-1 0,-2l-34 26zm-11 8l45 -34 1 0c-1,0 -1,1 0,2 0,1 0,1 0,2 1,1 1,1 2,2 0,0 1,0 1,0l1 1c-15,11 -30,23 -45,34l-1 0c1,-1 1,-2 1,-2 0,-1 0,-2 -1,-3 -1,-1 -1,-1 -2,-2 -1,0 -1,0 -2,0l0 0z"/>
    <path class="fil2" d="M68 286c-1,-2 -3,-3 -4,-2 -2,1 -2,4 0,6 1,2 3,2 4,1 0,0 0,0 1,0 1,-1 1,-3 -1,-5z"/>
    <path class="fil3" d="M68 286c-1,-2 -3,-3 -4,-2 -1,1 -1,4 0,5 1,2 3,3 4,2 0,0 0,0 0,0 1,-1 1,-3 0,-5z"/>
    <path class="fil0" d="M110 250c20,-16 41,-32 51,-40 10,-8 10,-8 10,-8 3,-1 5,1 5,4 0,0 0,1 0,1 0,1 -1,1 -11,9 -10,8 -30,23 -40,31 -10,8 -11,8 -11,8 0,0 0,-2 0,-3 0,-1 -3,-2 -4,-2z"/>
    <path class="fil8" d="M114 251c-1,-2 -4,-3 -5,-2 -1,2 -1,4 0,6 1,2 3,3 5,2 0,-1 0,-1 0,-1 1,-1 1,-3 0,-5z"/>
   </g>
   <g>
    <path class="fil5 str0" d="M78 285l-11 8c2,-1 3,0 4,2 2,2 2,4 1,5l13 -10 29 -23 2 -1 1 0c-1,-1 -3,-1 -4,-3 -1,-1 -1,-3 0,-4l-4 3 -2 1 -29 22z"/>
    <path class="fil6" d="M78 285l-10 8c1,0 1,0 2,0 0,0 1,1 2,2 0,1 1,2 1,3 0,0 0,1 -1,1 15,-11 30,-22 44,-33 0,0 -1,-1 -1,-1 -1,0 -1,-1 -2,-2 0,0 -1,-1 -1,-2 0,0 0,-1 0,-2l-34 26zm-11 8l45 -34 1 0c0,1 0,1 0,2 0,1 0,1 1,2 0,1 1,1 1,2 1,0 1,0 2,0l0 1c-15,11 -30,23 -45,34l-1 0c1,-1 1,-1 1,-2 0,-1 0,-2 -1,-3 0,-1 -1,-1 -2,-2 0,0 -1,0 -2,0l0 0z"/>
    <path class="fil2" d="M72 295c-2,-2 -4,-3 -5,-2 -2,1 -2,4 0,6 1,2 3,3 5,1 0,0 0,0 0,0 1,-1 1,-3 0,-5z"/>
    <path class="fil3" d="M71 295c-1,-2 -3,-3 -4,-2 -1,1 -1,4 0,6 1,1 3,2 4,1 0,0 1,0 1,0 1,-1 0,-3 -1,-5z"/>
    <path class="fil7" d="M113 259c20,-16 41,-32 51,-40 10,-8 10,-8 11,-8 2,-1 4,2 4,4 0,0 0,1 0,1 0,1 0,1 -11,9 -10,8 -30,23 -40,31 -10,8 -11,9 -11,8 0,0 1,-2 0,-3 0,-1 -3,-1 -4,-2z"/>
    <path class="fil5" d="M117 260c-1,-2 -3,-2 -5,-1 -1,1 -1,3 0,5 2,2 4,3 5,2 0,0 0,0 0,-1 1,-1 1,-3 0,-5z"/>
   </g>
  </g>
  <polygon class="fil19" points="192,193 91,274 94,301 192,221 "/>
 </g>
</svg>
