<?xml version="1.0" encoding="UTF-8"?>
<!DOCTYPE svg PUBLIC "-//W3C//DTD SVG 1.1//EN" "http://www.w3.org/Graphics/SVG/1.1/DTD/svg11.dtd">
<!-- Creator: CorelDRAW X8 -->
<svg xmlns="http://www.w3.org/2000/svg" xml:space="preserve" width="2.93284in" height="3.1218in" version="1.1" style="shape-rendering:geometricPrecision; text-rendering:geometricPrecision; image-rendering:optimizeQuality; fill-rule:evenodd; clip-rule:evenodd"
viewBox="0 0 413 440"
 xmlns:xlink="http://www.w3.org/1999/xlink">
 <defs>
  <style type="text/css">
   <![CDATA[
    .str0 {stroke:#E8E5E6;stroke-width:0.978307}
    .str1 {stroke:#BFBDBD;stroke-width:0.422602}
    .str6 {stroke:#151B29;stroke-width:0.422602}
    .str7 {stroke:#1F273D;stroke-width:0.422602}
    .str2 {stroke:#373435;stroke-width:0.976089;stroke-linecap:round;stroke-linejoin:round}
    .str4 {stroke:#1F273D;stroke-width:0.422602;stroke-linecap:round;stroke-linejoin:round}
    .str3 {stroke:#2C354D;stroke-width:0.422602;stroke-linecap:round;stroke-linejoin:round}
    .str5 {stroke:#3E4A6B;stroke-width:0.422602;stroke-linecap:round;stroke-linejoin:round}
    .fil4 {fill:none}
    .fil11 {fill:#F2F3F3}
    .fil14 {fill:#F2F3F3}
    .fil0 {fill:#E8E5E6}
    .fil20 {fill:#D9D9D9}
    .fil13 {fill:#D1D1D1}
    .fil21 {fill:#C8C9C9}
    .fil2 {fill:#BFBDBD}
    .fil1 {fill:#BFBDBD}
    .fil6 {fill:#151B29}
    .fil16 {fill:#151B29}
    .fil19 {fill:#1F273D}
    .fil15 {fill:#242C42}
    .fil3 {fill:#242C42}
    .fil5 {fill:#26314D}
    .fil7 {fill:#2C354D}
    .fil9 {fill:#323D5C}
    .fil8 {fill:#3E4A6B}
    .fil17 {fill:#3E4A6B}
    .fil12 {fill:#F2F3F3;fill-rule:nonzero}
    .fil10 {fill:#323D5C;fill-rule:nonzero}
    .fil18 {fill:#3E4A6B;fill-rule:nonzero}
   ]]>
  </style>
 </defs>
 <g id="Layer_x0020_1">
  <metadata id="CorelCorpID_0Corel-Layer"/>
  <g id="_1962829230864">
   <path class="fil0 str0" d="M113 69c22,-13 65,-39 89,-53 23,-14 26,-15 33,-15 6,-1 17,0 46,4 29,4 76,11 101,15 25,4 28,4 29,5 1,0 2,1 2,1 0,1 -1,1 -17,17 -17,16 -50,47 -67,63 -17,17 -19,18 -20,19 -1,1 -2,2 -2,2 0,0 0,0 -13,-3 -12,-3 -37,-8 -72,-16 -35,-7 -80,-17 -103,-22 -23,-5 -24,-5 -25,-5 -1,0 -3,0 -2,0l21 -12z"/>
   <path class="fil1 str1" d="M89 106c0,-8 0,-13 0,-16 0,-3 0,-4 0,-5 0,-1 0,-1 0,-2 1,0 1,0 1,-1 1,0 1,0 1,-1 1,0 1,0 2,0 1,0 3,0 33,7 31,7 91,19 125,27 34,7 43,9 48,10 5,1 7,2 8,2 1,0 1,1 2,1 0,0 1,1 1,1 0,1 0,2 0,4 0,2 0,5 0,13 0,7 0,19 0,25 0,7 0,8 0,8 0,1 0,1 0,2 0,0 -1,0 -1,1 0,0 -1,0 -1,1 -1,0 -1,0 -2,0 -1,0 -3,-1 -39,-9 -36,-7 -107,-23 -143,-31 -35,-8 -35,-8 -35,-14 0,-5 0,-15 0,-23z"/>
   <path class="fil2" d="M223 222l-1 53c0,2 0,4 0,5 0,7 1,8 1,10 0,3 2,7 7,9l25 8 31 10c7,3 8,3 8,4 1,1 1,2 2,4 0,1 0,4 0,8 -1,4 -1,11 -1,15 -1,4 -1,4 -2,5 0,0 0,0 -1,0 -2,1 -8,-1 -13,-3 -5,-2 -9,-4 -9,-4 0,0 0,0 0,-1 0,0 1,-1 2,-2 0,0 0,0 0,0 0,-1 1,-1 1,-3 0,-2 2,-5 2,-7 0,-2 -1,-3 -1,-4 0,-1 0,-2 -1,-2 -1,-1 -2,-1 -12,-4 -11,-3 -29,-9 -39,-13 -11,-3 -14,-4 -15,-4 -2,-1 -3,-1 -3,-1 -1,-1 -1,-1 -1,-2 0,-1 0,-2 0,-12 0,-9 0,-27 0,-37 0,-10 0,-12 0,-13 0,-1 0,-1 0,-1 0,0 1,1 1,0 1,0 2,0 4,-3l3 -3c4,-4 9,-9 12,-12z"/>
   <path class="fil3" d="M207 428c0,1 0,9 0,10l66 -94c2,-3 2,-7 2,-9 0,-2 0,-3 0,-5 0,0 -1,1 -1,1 -1,1 -3,5 -11,16l-45 64c-11,17 -11,17 -11,17z"/>
   <path class="fil4" d="M5 157l198 57c2,1 4,2 4,5l0 17c0,2 -2,5 -4,4l-196 -57c-3,0 -4,-2 -5,-4l-2 -18c0,-2 2,-5 5,-4z"/>
   <line class="fil4" x1="3" y1="157" x2="104" y2= "95" />
   <line class="fil4" x1="203" y1="214" x2="285" y2= "134" />
   <line class="fil4" x1="206" y1="217" x2="287" y2= "136" />
   <line class="fil4" x1="206" y1="239" x2="287" y2= "157" />
   <path class="fil4 str2" d="M81 205c2,1 3,2 4,4 1,2 1,5 4,34 2,30 7,85 11,141"/>
   <path class="fil4" d="M123 392c26,-30 53,-59 80,-89"/>
   <path class="fil4" d="M104 95c58,12 116,25 147,31 31,7 33,7 35,8 1,1 1,3 1,6 0,4 0,11 0,17"/>
   <path class="fil5 str3" d="M203 214l82 -80c-1,-1 -6,-2 -34,-8l-147 -31 -101 62c1,0 1,0 2,0l198 57z"/>
   <path class="fil6 str4" d="M203 214l-198 -57c-1,0 -1,0 -2,0 -2,1 -3,3 -3,4l2 18c1,2 2,4 5,4l74 22 35 10 87 25c1,1 2,0 3,-1 0,-1 1,-2 1,-3l0 -17c0,-1 0,-2 -1,-2 0,-1 -2,-2 -3,-3z"/>
   <path class="fil7 str3" d="M287 136l-81 81c1,0 1,1 1,2l0 17c0,1 -1,2 -1,3l17 -17 47 -47 17 -18c0,-6 0,-13 0,-17 0,-2 0,-3 0,-4z"/>
   <path class="fil8 str5" d="M206 217l81 -81c0,-1 -1,-1 -1,-2 0,0 -1,0 -1,0l-82 80c1,1 3,2 3,3z"/>
   <path class="fil9" d="M274 327c-1,0 -2,-1 -13,-4 -12,-4 -34,-11 -57,-18l0 0 -79 89 78 31c0,0 1,1 1,1l70 -99c0,0 0,0 0,0z"/>
   <path class="fil10" d="M273 327c0,0 0,0 -2,-1 -2,0 -5,-1 -10,-3 -12,-4 -34,-11 -56,-18l-1 0 -79 89 78 31c0,0 0,0 0,0l1 0 70 -98 -1 0zm-2 -1c2,0 2,1 3,1l0 0 0 0c-23,33 -46,66 -70,99l0 0c0,0 -1,0 -1,0 0,-1 0,-1 0,-1l-79 -31c27,-30 54,-59 80,-89l1 0c22,7 44,14 56,17 5,2 9,3 10,4z"/>
   <path class="fil0" d="M233 300l58 19 97 -139c-1,-1 -3,-2 -7,-3 -11,-3 -22,-6 -33,-10l-115 133z"/>
   <path class="fil11" d="M233 300l115 -133c-5,-1 -6,-2 -7,-3 -1,-1 -2,-2 -2,-5l-116 128c1,8 3,10 10,13z"/>
   <path class="fil12" d="M233 299l114 -132c-2,0 -3,-1 -4,-1 -1,-1 -1,-1 -2,-2 -1,0 -1,-1 -1,-2 -1,0 -1,-1 -1,-2l-116 127c0,4 1,7 3,8 1,2 3,3 7,4zm115 -132l-115 133 0 0c-4,-1 -6,-3 -8,-4 -1,-2 -2,-5 -2,-9l0 0c39,-43 77,-86 116,-128l0 0c0,1 1,2 1,3 0,1 1,1 1,2 1,0 1,1 2,1 1,1 2,1 5,2l0 0 0 0z"/>
   <path class="fil13" d="M223 287l116 -128c0,-3 0,-7 0,-11 -9,11 -20,22 -30,34 -1,1 -2,1 -3,1l-36 -8 -47 48c0,18 -2,44 0,64z"/>
   <path class="fil14" d="M388 180l-97 139c3,1 5,4 5,7l95 -141c0,-3 -1,-4 -3,-5z"/>
   <path class="fil15" d="M31 358c0,0 2,0 2,0 0,0 0,0 1,0l10 4c1,0 3,1 5,2l50 20c1,0 1,0 0,-13l-4 -52 -2 -23c0,0 0,0 0,0l-62 62z"/>
   <path class="fil16 str6" d="M89 243c1,15 3,37 5,63 0,0 0,0 0,0l1 13 4 52c1,13 1,13 0,13l-65 -26c-1,0 -1,0 -1,0 0,0 0,0 -1,0 -1,0 -2,1 -2,3l1 9c0,1 2,2 4,3l168 66c1,1 3,0 3,-1 0,0 1,0 1,0 0,-1 0,-1 0,-1l0 -8c0,0 0,0 0,0 -1,-1 -2,-2 -3,-3 0,0 -1,-1 -1,-1l-78 -31 -2 -1c0,0 0,0 0,-1 -4,-56 -8,-112 -10,-141 -2,-29 -2,-31 -2,-33 0,-1 1,-2 2,-2 0,-1 2,-1 3,-1l-35 -10c2,1 3,2 4,4 1,2 1,5 4,34z"/>
   <path class="fil17" d="M203 303l-80 89c0,1 0,1 0,1l2 1 79 -89c0,0 -1,-1 -1,-1 0,0 0,-1 0,-1z"/>
   <path class="fil18" d="M203 303l-80 89 0 1 2 1 79 -89c0,0 0,0 0,0 -1,0 -1,-1 -1,-1 0,0 0,0 0,-1l0 0zm-80 89l80 -90 0 1c0,0 0,0 0,0 0,1 0,1 0,1 0,0 1,0 1,0 0,1 0,1 1,1 -27,30 -53,60 -80,89l-2 0 0 -2 0 0z"/>
   <path class="fil19 str7" d="M123 392l80 -89 0 0 0 -63 -87 -25c-1,0 -3,0 -3,1 -1,0 -2,1 -2,2 0,2 0,4 2,33 2,29 6,85 10,141z"/>
   <path class="fil8" d="M204 426c0,0 1,0 1,0 0,0 0,0 0,0 0,1 1,1 1,1 0,0 0,0 0,0 0,0 0,0 0,1 0,0 1,0 1,0l68 -98c0,0 0,0 0,0 0,-1 0,-2 -1,-3l-12 17c-11,16 -34,48 -46,65 -11,16 -12,16 -12,17z"/>
   <path class="fil20" d="M296 326c0,2 0,5 -1,9 0,4 0,10 -1,13l0 5 0 0 93 -139c1,-2 1,-3 2,-5 0,-2 0,-4 1,-8 0,-6 1,-10 1,-16l0 0 -17 25c-16,23 -45,67 -60,90 -15,22 -17,25 -18,26z"/>
   <path class="fil21" d="M310 134c0,13 0,29 0,34 0,5 1,8 1,10 -1,1 -1,2 -1,3 -1,0 -1,1 0,-1 1,-1 4,-3 19,-21 15,-17 44,-50 59,-67 16,-18 18,-20 19,-23 1,-3 2,-6 3,-12 1,-6 2,-14 2,-18 1,-5 1,-6 1,-6 0,0 0,0 -17,17 -17,17 -51,50 -68,67 -17,16 -17,17 -18,17z"/>
   <path class="fil14" d="M310 134c33,-32 66,-64 83,-81 0,0 20,-19 20,-20l0 -1 0 -6 0 0 -16 16c-16,15 -49,46 -66,62 -18,17 -20,19 -21,20 -2,2 -3,2 -3,3 0,0 0,0 0,0 1,0 2,1 2,2 1,1 1,1 1,2 0,0 0,3 0,3z"/>
  </g>
 </g>
</svg>
