<?xml version="1.0" encoding="UTF-8"?>
<!DOCTYPE svg PUBLIC "-//W3C//DTD SVG 1.1//EN" "http://www.w3.org/Graphics/SVG/1.1/DTD/svg11.dtd">
<!-- Creator: CorelDRAW X8 -->
<svg xmlns="http://www.w3.org/2000/svg" xml:space="preserve" width="0.500827in" height="0.540425in" version="1.1" style="shape-rendering:geometricPrecision; text-rendering:geometricPrecision; image-rendering:optimizeQuality; fill-rule:evenodd; clip-rule:evenodd"
viewBox="0 0 44 47"
 xmlns:xlink="http://www.w3.org/1999/xlink">
 <defs>
  <style type="text/css">
   <![CDATA[
    .fil0 {fill:#FEFEFE;fill-rule:nonzero}
   ]]>
  </style>
 </defs>
 <g id="Layer_x0020_1">
  <metadata id="CorelCorpID_0Corel-Layer"/>
  <g id="_2463791509904">
   <path class="fil0" d="M42 2l-9 0c-1,0 -1,0 -1,1 0,0 0,0 1,0l9 0c0,0 0,1 0,1l0 27c0,0 1,1 1,1 0,0 1,-1 1,-1l0 -27c0,-1 -1,-2 -2,-2z"/>
   <path class="fil0" d="M43 33c0,0 -1,0 -1,1l0 9c0,2 -1,3 -2,3 -2,0 -3,-1 -3,-3l0 -15c0,-2 -2,-4 -4,-4 -2,0 -4,2 -4,4l0 4c0,2 -1,3 -2,3 -2,0 -3,-1 -3,-3l0 -3 4 -4c0,0 0,-1 0,-1l9 -9c0,-1 0,-2 0,-2l-10 -10 7 0c0,0 0,0 0,0 0,-1 0,-1 0,-1l-8 0 -2 -2c0,0 0,0 0,0l-2 0c0,0 0,0 0,0l-9 9c0,0 0,0 0,0 -1,0 -1,0 -2,0l-3 4c-1,1 -1,2 0,3l5 5c-2,2 -5,4 -8,5 -1,1 -1,1 -2,2 -1,1 -2,3 -3,4 0,2 0,3 1,4 0,1 1,1 2,1 1,0 3,-1 5,-2 0,0 0,0 0,-1 -1,0 -1,0 -1,0 -2,2 -4,2 -5,1 -1,0 -1,-1 0,-2 0,-2 1,-3 2,-4 1,-1 1,-1 2,-2 3,-1 5,-3 8,-5l1 1c-2,3 -4,5 -5,8 -1,0 -1,1 -1,1 0,0 0,1 0,1 0,0 0,0 0,0 1,0 1,0 1,0 0,0 0,-1 1,-1 1,-3 3,-6 5,-8l5 5c1,1 1,1 2,1 0,0 0,0 0,0l0 2c0,3 1,4 4,4 2,0 4,-1 4,-4l0 -4c0,-2 1,-3 2,-3 2,0 3,1 3,3l0 15c0,2 2,4 4,4 2,0 4,-2 4,-4l0 -9c0,-1 -1,-1 -1,-1zm-20 -32c0,0 0,0 0,0l13 13c0,0 0,0 0,0l-9 9 -3 -4 1 -1c1,0 1,-1 0,-1 0,0 0,0 -1,0l-1 1 -5 -5 2 -1c0,0 0,-1 0,-1 -1,0 -1,0 -1,0l-2 1 -1 0 6 -6c0,0 0,-1 0,-1 0,0 -1,0 -1,0l-6 6 -1 -1 9 -9zm-1 27l-13 -13c0,0 0,-1 0,-1l3 -4c1,0 1,0 1,0 0,0 0,0 0,0l14 14c0,0 0,0 0,1l-4 3c0,0 0,0 0,0 -1,0 -1,0 -1,0z"/>
   <path class="fil0" d="M14 16c-1,0 -1,0 -1,0 -1,0 -1,1 0,1l7 7c0,0 0,1 0,1 1,0 1,-1 1,-1 0,0 0,0 0,-1l-7 -7z"/>
  </g>
 </g>
</svg>
