<?xml version="1.0" encoding="UTF-8"?>
<!DOCTYPE svg PUBLIC "-//W3C//DTD SVG 1.1//EN" "http://www.w3.org/Graphics/SVG/1.1/DTD/svg11.dtd">
<!-- Creator: CorelDRAW X8 -->
<svg xmlns="http://www.w3.org/2000/svg" xml:space="preserve" width="0.308835in" height="0.474346in" version="1.1" style="shape-rendering:geometricPrecision; text-rendering:geometricPrecision; image-rendering:optimizeQuality; fill-rule:evenodd; clip-rule:evenodd"
viewBox="0 0 29 45"
 xmlns:xlink="http://www.w3.org/1999/xlink">
 <defs>
  <style type="text/css">
   <![CDATA[
    .fil0 {fill:#FEFEFE;fill-rule:nonzero}
   ]]>
  </style>
 </defs>
 <g id="Layer_x0020_1">
  <metadata id="CorelCorpID_0Corel-Layer"/>
  <path class="fil0" d="M24 8l0 30 -7 0 0 -30 7 0zm5 -6l-12 0 0 -1c0,0 0,-1 0,-1 0,0 0,0 -1,0l0 0c0,0 0,0 0,0l-15 4c-1,0 -1,1 -1,1l0 5c0,1 0,1 1,1 0,0 1,0 1,-1l0 -4 14 -4 0 41 -14 -2 0 -31c0,0 -1,-1 -1,-1 -1,0 -1,1 -1,1l0 31c0,1 0,1 1,1l15 3c0,0 0,0 0,0l0 0c1,0 1,0 1,0 0,0 0,0 0,-1l0 -1 10 0c0,0 1,0 1,-1 0,0 -1,-1 -1,-1l-10 0 0 -2 8 0c0,0 1,0 1,-1l0 -31c0,-1 -1,-1 -1,-1l-8 0 0 -2 11 0 0 37 -1 0c-1,0 -1,1 -1,1 0,1 0,1 1,1l2 0c0,0 0,0 0,-1l0 -39c0,0 0,-1 0,-1z"/>
 </g>
</svg>
