<?xml version="1.0" encoding="UTF-8"?>
<!DOCTYPE svg PUBLIC "-//W3C//DTD SVG 1.1//EN" "http://www.w3.org/Graphics/SVG/1.1/DTD/svg11.dtd">
<!-- Creator: CorelDRAW X8 -->
<svg xmlns="http://www.w3.org/2000/svg" xml:space="preserve" width="2.83948in" height="3.23048in" version="1.1" style="shape-rendering:geometricPrecision; text-rendering:geometricPrecision; image-rendering:optimizeQuality; fill-rule:evenodd; clip-rule:evenodd"
viewBox="0 0 399 454"
 xmlns:xlink="http://www.w3.org/1999/xlink">
 <defs>
  <style type="text/css">
   <![CDATA[
    .str1 {stroke:#B43566;stroke-width:0.421377}
    .str0 {stroke:#6B809B;stroke-width:2.21195;stroke-linecap:round;stroke-linejoin:round}
    .fil14 {fill:none}
    .fil0 {fill:#FEFEFE}
    .fil6 {fill:#BDBFC1}
    .fil2 {fill:#F89D32}
    .fil1 {fill:#F2F3F3}
    .fil22 {fill:#E74E53}
    .fil8 {fill:#E8E5E6}
    .fil4 {fill:#E28738}
    .fil5 {fill:#D9D9D9}
    .fil16 {fill:#C8C9C9}
    .fil23 {fill:#B43566}
    .fil20 {fill:#8F3153}
    .fil13 {fill:#6B809B}
    .fil15 {fill:#6B809B}
    .fil7 {fill:#888C8E}
    .fil27 {fill:#727678}
    .fil17 {fill:#727678}
    .fil26 {fill:#6670B3}
    .fil19 {fill:#14171F}
    .fil10 {fill:#151B29}
    .fil9 {fill:#242C42}
    .fil11 {fill:#26314D}
    .fil18 {fill:#2C354D}
    .fil12 {fill:#59678C}
    .fil25 {fill:#6F7AD2}
    .fil3 {fill:#E28738;fill-rule:nonzero}
    .fil24 {fill:#B43566;fill-rule:nonzero}
    .fil21 {fill:#8F3153;fill-rule:nonzero}
   ]]>
  </style>
 </defs>
 <g id="Layer_x0020_1">
  <metadata id="CorelCorpID_0Corel-Layer"/>
  <polygon class="fil0" points="90,295 61,88 170,110 307,278 297,376 "/>
  <path class="fil1" d="M204 203c2,-4 4,-7 7,-9 15,-16 46,-10 66,12 20,22 23,48 10,62 -1,2 -2,3 -3,4 -2,2 -4,3 -6,4l5 -6c1,-1 2,-2 3,-3 11,-15 7,-40 -11,-60 -19,-20 -48,-26 -63,-12 -2,3 -5,5 -8,8z"/>
  <path class="fil0" d="M180 225c2,-4 4,-7 7,-10 16,-16 48,-9 69,14 21,22 24,49 11,65 -1,1 -2,2 -3,3 -2,2 -5,3 -7,5l5 -7c1,-1 2,-2 3,-3 12,-16 8,-42 -11,-62 -20,-21 -50,-28 -66,-13 -2,3 -5,5 -8,8z"/>
  <path class="fil1" d="M186 216c2,-1 4,-3 5,-5 1,-1 2,-1 3,-2 2,-1 4,-2 6,-2 2,-1 5,-1 7,-2 3,0 6,0 9,0 3,1 6,1 9,2 3,1 6,2 10,3 3,2 6,4 9,6 3,1 5,3 7,5 3,2 5,5 7,7 3,3 5,6 7,9 2,3 4,7 6,10 2,4 3,7 4,10 0,4 1,7 1,10 0,2 0,4 0,7 0,2 -1,5 -1,7 -1,3 -2,6 -3,8 -2,3 -4,5 -6,7 -2,2 -4,3 -5,3 -1,1 -1,1 0,0 2,-1 4,-4 6,-6 2,-2 3,-4 4,-6 1,-2 2,-5 3,-8 0,-3 1,-8 0,-13 -1,-5 -3,-10 -6,-17 -4,-7 -9,-14 -14,-20 -6,-6 -11,-9 -16,-12 -5,-3 -10,-5 -15,-7 -4,-1 -9,-2 -13,-2 -5,1 -10,2 -14,3 -4,2 -8,4 -10,5z"/>
  <polygon class="fil2" points="239,67 170,110 307,278 355,212 "/>
  <polygon class="fil3" points="224,76 345,225 344,226 223,77 "/>
  <polygon class="fil3" points="227,75 347,223 346,224 226,75 "/>
  <polygon class="fil3" points="229,73 349,220 348,221 228,74 "/>
  <polygon class="fil3" points="231,72 350,218 350,219 231,72 "/>
  <polygon class="fil3" points="234,70 352,215 351,216 233,71 "/>
  <polygon class="fil3" points="236,69 354,213 353,214 236,69 "/>
  <polygon class="fil4" points="221,78 196,94 325,252 342,229 "/>
  <polygon class="fil3" points="174,107 310,274 309,275 174,108 "/>
  <path class="fil5" d="M6 27l35 258 10 29 21 25 260 115 26 -157 -51 -19 -13 97 -204 -80 -29 -207 109 22 3 -45c1,-5 1,-9 -3,-11 -4,-1 -11,-2 -20,-4 -22,-3 -64,-9 -91,-13 -27,-5 -42,-8 -53,-10z"/>
  <path class="fil6" d="M170 54c-55,-9 -110,-16 -137,-21l-27 -6 18 -6c14,-4 39,-13 53,-18 6,-2 10,-4 15,-3l149 20 -14 6c-11,6 -35,17 -57,28z"/>
  <polygon class="fil7" points="241,20 239,67 170,110 170,54 "/>
  <polygon class="fil3" points="178,105 312,270 312,271 177,106 "/>
  <polygon class="fil3" points="182,103 315,266 314,267 181,103 "/>
  <polygon class="fil3" points="186,100 318,263 317,263 185,101 "/>
  <polygon class="fil3" points="190,98 320,259 320,260 189,98 "/>
  <polygon class="fil3" points="193,96 323,255 323,256 193,96 "/>
  <path class="fil8" d="M187 218c25,-22 75,-67 100,-90 25,-22 25,-22 26,-23 1,-1 3,-2 5,-3 2,-1 3,-2 5,-2 2,0 3,-1 5,-1 1,0 3,0 5,1 3,0 5,1 7,1 2,1 5,2 7,3 2,1 5,3 7,5 2,1 4,3 6,5 2,2 4,4 5,5 2,2 3,4 4,6 1,2 2,4 3,6 1,3 2,5 2,7 1,3 1,5 1,7 0,2 0,3 0,5 0,2 -1,4 -1,6 -1,2 -2,4 -5,8 -2,3 -6,8 -27,35 -22,26 -62,74 -81,98 -20,24 -20,24 -20,24 1,-1 2,-3 3,-5 1,-2 2,-5 3,-7 0,-3 0,-5 1,-7 0,-3 0,-5 0,-7 -1,-3 -1,-5 -1,-6 -1,-2 -1,-3 -2,-5 0,-2 -1,-4 -2,-7 -1,-2 -2,-4 -3,-6 -1,-2 -3,-4 -4,-6 -1,-2 -3,-4 -5,-7 -2,-2 -5,-5 -7,-7 -3,-2 -5,-4 -8,-6 -2,-1 -5,-3 -7,-4 -3,-2 -4,-2 -7,-3 -2,-1 -4,-2 -7,-2 -2,-1 -3,-1 -5,-1 -2,-1 -5,-1 -6,-1 -2,0 -4,0 -6,1 -1,0 -3,0 -5,1 -1,0 -3,1 -5,1 -1,1 -8,6 -7,5l26 -24z"/>
  <path class="fil9" d="M263 98c2,-2 4,-3 6,-4 5,-1 12,1 16,5 8,7 12,19 2,27 0,0 -1,0 -1,1 0,0 -21,-27 -23,-29z"/>
  <path class="fil7" d="M364 172c1,-1 6,-9 7,-10 11,-17 -1,-42 -14,-51 -10,-9 -22,-12 -33,-11 -4,0 -9,3 -12,6l-8 7c31,-14 70,24 60,59z"/>
  <polygon class="fil6" points="399,223 355,212 307,278 358,297 "/>
  <polygon class="fil7" points="358,297 331,454 373,361 399,223 "/>
  <path class="fil8" d="M91 134l0 1c1,-1 1,-1 1,-1 0,0 0,0 1,-1 1,-2 1,-5 -1,-8 -3,-3 -5,-4 -7,-3l0 0 -59 30 2 1c2,0 4,2 6,4 3,4 4,9 2,12l55 -35z"/>
  <polygon class="fil10" points="51,314 41,285 13,307 24,335 "/>
  <polygon class="fil11" points="51,314 24,335 45,358 69,336 51,314 "/>
  <polygon class="fil8" points="41,285 51,314 88,283 96,276 96,276 94,273 84,252 81,254 80,255 "/>
  <polygon class="fil0" points="94,273 92,268 82,276 84,281 "/>
  <polygon class="fil0" points="89,261 86,257 78,263 80,269 "/>
  <polygon class="fil1" points="21,307 43,290 45,296 23,313 "/>
  <path class="fil9" d="M86 231c14,-12 27,-23 34,-29 7,-6 7,-6 7,-6 0,0 1,0 1,-1 1,0 1,-1 2,-1 2,0 3,0 4,-1 2,0 3,0 4,1 1,0 2,0 3,0 1,0 2,1 3,1 1,1 3,1 4,2 1,1 2,1 3,2 1,1 2,2 3,3 1,1 2,2 3,3 1,1 1,2 2,3 1,1 2,3 3,4 0,2 1,4 1,5 1,2 1,3 1,4 1,1 1,3 1,4 0,1 0,2 0,3 -1,1 -1,2 -1,4 -1,1 -1,2 -9,10 -7,7 -22,20 -30,27 -7,7 -7,7 -7,5 1,-1 2,-4 3,-6 1,-3 1,-5 1,-8 0,-3 -1,-7 -3,-10 -1,-3 -2,-5 -4,-7 -2,-2 -4,-5 -6,-7 -2,-2 -5,-3 -8,-5 -2,-1 -5,-1 -8,-1 -2,0 -5,0 -7,1z"/>
  <path class="fil12" d="M124 196l12 -10c2,-2 3,-2 4,-3 1,0 2,0 3,0 1,-1 3,-1 4,-1 1,0 3,1 4,1 2,1 4,1 5,2 2,1 4,2 5,3 1,1 3,2 4,3 2,1 3,3 4,5 2,1 3,3 4,5 1,1 2,3 2,5 1,2 1,4 2,6 0,2 0,3 0,5 0,2 0,4 -1,6 0,2 -1,4 -2,5 -1,2 -3,3 -5,5 -2,2 -6,4 -7,6 -2,1 -2,1 -1,0 0,-1 2,-3 2,-5 1,-2 2,-4 2,-6 0,-2 1,-5 0,-8 -1,-3 -2,-7 -4,-10 -2,-3 -4,-6 -6,-8 -2,-2 -4,-3 -6,-5 -3,-1 -5,-3 -7,-3 -3,-1 -6,-3 -8,-2l-10 4z"/>
  <path class="fil13" d="M159 238l-5 5c3,-1 6,-2 8,-5 1,-1 1,-1 2,-2 5,-9 2,-24 -8,-35 -11,-11 -26,-13 -33,-5 -1,2 -2,4 -3,6l5 -4c7,-7 20,-5 30,5 9,10 12,23 7,31 0,1 -1,2 -1,2 -1,1 -1,1 -2,2z"/>
  <line class="fil14 str0" x1="154" y1="202" x2="152" y2= "204" />
  <line class="fil14 str0" x1="157" y1="206" x2="155" y2= "208" />
  <line class="fil14 str0" x1="160" y1="211" x2="158" y2= "212" />
  <line class="fil14 str0" x1="163" y1="215" x2="159" y2= "216" />
  <line class="fil14 str0" x1="164" y1="220" x2="160" y2= "221" />
  <line class="fil14 str0" x1="165" y1="225" x2="161" y2= "226" />
  <line class="fil14 str0" x1="165" y1="230" x2="161" y2= "229" />
  <line class="fil14 str0" x1="163" y1="234" x2="160" y2= "233" />
  <polyline class="fil14 str0" points="160,238 159,237 158,236 "/>
  <line class="fil14 str0" x1="156" y1="241" x2="155" y2= "240" />
  <line class="fil14 str0" x1="150" y1="198" x2="148" y2= "201" />
  <line class="fil14 str0" x1="145" y1="195" x2="144" y2= "198" />
  <line class="fil14 str0" x1="140" y1="193" x2="139" y2= "196" />
  <line class="fil14 str0" x1="134" y1="193" x2="134" y2= "196" />
  <line class="fil14 str0" x1="129" y1="193" x2="130" y2= "196" />
  <line class="fil14 str0" x1="126" y1="196" x2="127" y2= "198" />
  <line class="fil14 str0" x1="123" y1="199" x2="123" y2= "200" />
  <path class="fil15" d="M114 240c-10,-12 -24,-15 -31,-7 -8,8 -6,24 4,36 10,11 24,14 31,6 1,0 1,-1 2,-2 6,-8 3,-22 -6,-33z"/>
  <path class="fil10" d="M113 241c-9,-11 -22,-14 -29,-6 -6,7 -5,22 4,32 9,11 22,14 29,7 0,-1 1,-2 1,-2 5,-8 3,-21 -5,-31z"/>
  <path class="fil16" d="M14 168c-4,-4 -9,-6 -12,-3 -3,3 -3,9 1,14 4,5 9,6 12,3 0,0 1,0 1,0 2,-4 1,-9 -2,-14z"/>
  <path class="fil17" d="M14 169c-4,-4 -9,-6 -11,-3 -3,3 -3,8 1,13 3,4 8,5 11,3 0,-1 0,-1 0,-1 2,-3 2,-8 -1,-12z"/>
  <path class="fil7" d="M15 182l15 -8c1,-1 4,-2 5,-3 0,0 0,-1 1,-1 2,-3 1,-9 -2,-13 -3,-4 -8,-6 -11,-4l-20 11c3,-1 8,0 11,4 3,5 4,10 2,14 0,0 -1,0 -1,0 0,0 0,0 0,0z"/>
  <path class="fil16" d="M23 242c-4,-4 -10,-6 -13,-2 -3,3 -2,10 2,14 5,5 10,6 13,3 0,-1 1,-1 1,-1 2,-4 1,-10 -3,-14zm0 1c-4,-5 -10,-6 -12,-2 -3,3 -2,9 2,13 4,4 9,5 12,2 0,0 0,-1 0,-1 2,-3 1,-8 -2,-12z"/>
  <path class="fil17" d="M23 243c-4,-5 -10,-6 -12,-2 -3,3 -2,9 2,13 4,4 9,5 12,2 0,0 0,-1 0,-1 2,-3 1,-8 -2,-12z"/>
  <path class="fil7" d="M25 257l15 -11c1,0 4,-2 5,-3 0,0 0,-1 1,-1 2,-3 1,-9 -3,-13 -4,-5 -9,-6 -12,-4l-20 14c3,-2 8,-1 12,3 4,4 5,10 3,14 0,0 -1,0 -1,1 0,0 0,0 0,0z"/>
  <path class="fil8" d="M101 200l0 0c1,0 1,0 1,0 0,-1 0,-1 0,-1 2,-2 1,-6 -1,-9 -3,-2 -6,-3 -8,-2l0 0 -59 36 3 1c2,0 4,1 6,4 3,3 5,8 3,12l55 -41z"/>
  <path class="fil18" d="M33 228c2,2 2,2 5,4 1,1 3,5 3,8 0,3 -1,6 -1,8 1,-1 4,-4 5,-5 0,0 0,-1 1,-1 0,0 0,-1 0,-1 2,-4 0,-9 -3,-12 -3,-3 -7,-6 -10,-4 -1,0 -1,0 -2,0l-5 3c1,0 5,0 7,0z"/>
  <path class="fil15" d="M22 231c0,0 1,-1 1,-2 4,-3 10,-2 15,3 4,5 5,11 3,15 -1,0 -1,0 -1,1 -1,1 -3,2 -5,2l3 -2c0,0 1,-1 1,-1 0,0 1,-1 1,-1 2,-3 1,-9 -3,-13 -4,-5 -9,-6 -12,-4l-3 2c0,0 0,0 0,0z"/>
  <polygon class="fil1" points="25,320 47,303 49,308 27,325 "/>
  <polygon class="fil1" points="49,286 70,269 72,273 50,291 "/>
  <polygon class="fil1" points="53,298 74,281 76,286 54,303 "/>
  <path class="fil1" d="M88 283l-37 31 0 0 0 0 18 22 38 -34 12 -11 -14 -11c-3,-1 -6,-2 -9,-4l-8 7z"/>
  <path class="fil1" d="M106 281l-1 -1c-2,-1 -4,-1 -5,-2l-11 9 4 5 13 -11z"/>
  <path class="fil8" d="M106 281l-1 -1c-2,-1 -3,-1 -4,-2l-12 10 4 4 13 -11z"/>
  <polygon class="fil5" points="32,336 54,318 58,322 37,341 "/>
  <polygon class="fil5" points="40,345 61,327 65,332 45,350 "/>
  <polygon class="fil8" points="59,313 81,295 85,300 63,318 "/>
  <polygon class="fil8" points="67,322 88,304 92,308 71,327 "/>
  <polygon class="fil8" points="97,297 110,284 114,287 100,300 "/>
  <polygon class="fil19" points="69,336 45,358 161,410 180,386 "/>
  <polygon class="fil8" points="197,337 143,316 140,319 135,317 138,314 107,302 69,336 180,386 180,357 "/>
  <polygon class="fil5" points="157,321 151,319 148,322 153,325 "/>
  <path class="fil8" d="M107 302l90 35 4 -5c-10,-3 -20,-9 -29,-17l-53 -24 -12 11z"/>
  <polygon class="fil5" points="151,319 157,321 165,312 160,310 "/>
  <polygon class="fil5" points="137,314 143,316 153,306 148,304 "/>
  <polygon class="fil5" points="84,368 101,351 107,353 89,371 "/>
  <polygon class="fil5" points="97,374 114,357 120,359 102,377 "/>
  <polygon class="fil5" points="108,343 126,325 131,328 113,345 "/>
  <polygon class="fil5" points="121,349 138,331 144,333 127,352 "/>
  <g id="_1963080082064">
   <path class="fil20 str1" d="M44 359l-8 8c1,-1 2,0 3,1 1,1 2,3 1,4l10 -10 22 -21 1 -1 1 -1c-1,0 -2,-1 -3,-2 -1,-1 -2,-2 -1,-3l-3 3 -2 1 -21 21z"/>
   <path class="fil21" d="M44 359l-8 7c1,0 1,0 1,1 1,0 2,0 2,1 1,1 1,1 1,2 1,1 1,1 0,1 11,-10 22,-21 33,-32 0,0 -1,0 -1,0 0,0 -1,-1 -1,-1 -1,-1 -1,-2 -1,-2 -1,-1 -1,-1 -1,-2l-25 25zm-9 8l34 -33 1 0c0,0 0,1 0,2 0,0 0,1 1,1 0,1 1,1 1,1 1,1 1,1 2,1l0 0c-11,11 -23,22 -34,33l0 0c0,0 0,-1 0,-2 0,0 0,-1 -1,-2 0,0 -1,-1 -2,-1 0,0 -1,0 -1,0l-1 0z"/>
   <path class="fil22" d="M39 368c-1,-2 -3,-2 -4,-1 -1,1 -1,3 1,5 1,1 3,2 4,1 0,-1 0,-1 0,-1 1,-1 1,-3 -1,-4z"/>
   <path class="fil2" d="M39 368c-1,-1 -3,-2 -4,-1 -1,1 0,3 1,5 1,1 3,1 4,0 0,0 0,0 0,0 1,-1 0,-3 -1,-4z"/>
   <path class="fil17" d="M70 334c15,-15 31,-31 38,-39 8,-7 8,-7 8,-7 2,-1 4,1 4,2 0,1 0,1 0,2 0,0 0,0 -8,8 -7,8 -22,22 -30,30 -8,7 -8,8 -8,8 0,-1 0,-2 0,-3 -1,0 -3,-1 -4,-1z"/>
   <path class="fil23" d="M73 335c-1,-2 -3,-2 -4,-1 -1,1 0,3 1,4 1,2 3,2 4,1 0,0 0,0 0,0 1,-1 1,-3 -1,-4z"/>
  </g>
  <g id="_1963080083824">
   <path class="fil20 str1" d="M50 363l-8 7c1,0 2,0 3,2 2,1 2,3 1,4l10 -10 22 -22 1 -1 1 0c-1,0 -2,-1 -3,-2 -1,-1 -1,-2 -1,-4l-3 3 -1 1 -22 22z"/>
   <path class="fil21" d="M50 363l-7 7c0,0 0,0 1,0 0,0 1,1 2,1 0,1 1,2 1,3 0,0 0,1 0,1 11,-11 22,-22 32,-32 0,0 0,0 -1,-1 0,0 -1,0 -1,-1 -1,0 -1,-1 -1,-2 0,0 0,-1 0,-1l-26 25zm-8 7l34 -33 0 0c0,1 0,2 0,2 0,1 1,1 1,2 1,0 1,1 1,1 1,0 1,0 2,0l0 1c-11,11 -22,22 -34,33l0 0c0,-1 0,-2 0,-2 0,-1 0,-2 -1,-2 0,-1 -1,-1 -1,-2 -1,0 -2,0 -2,1l0 -1z"/>
   <path class="fil22" d="M46 371c-2,-1 -4,-1 -5,0 -1,1 0,3 1,4 1,2 3,2 4,1 0,0 0,0 0,0 1,-1 1,-3 0,-5z"/>
   <path class="fil2" d="M45 372c-1,-2 -2,-2 -3,-1 -1,1 -1,3 0,4 1,1 3,2 4,1 0,0 0,0 0,0 1,-1 1,-3 -1,-4z"/>
   <path class="fil17" d="M77 337c14,-15 30,-31 38,-38 7,-8 7,-8 7,-8 2,-1 4,1 5,3 0,0 0,1 0,1 -1,1 -1,1 -8,9 -8,7 -23,22 -31,29 -7,8 -8,9 -8,8 0,0 0,-1 0,-2 0,-1 -3,-1 -3,-2z"/>
   <path class="fil23" d="M80 338c-2,-1 -3,-2 -4,-1 -1,1 -1,3 0,5 1,1 3,2 4,1 0,0 0,-1 0,-1 1,-1 1,-3 0,-4z"/>
  </g>
  <g id="_1963080086896">
   <path class="fil7" d="M74 330c15,-15 31,-31 38,-39 8,-7 8,-7 8,-7 2,-1 4,1 4,2 0,1 0,1 0,2 0,0 0,0 -8,8 -7,8 -22,22 -30,30 -8,7 -8,8 -8,8 0,-1 0,-2 0,-3 -1,0 -3,-1 -4,-1z"/>
   <path class="fil23" d="M77 331c-1,-2 -3,-2 -4,-1l0 0 -34 33 1 0c0,0 1,0 1,0 1,0 2,1 2,1 1,1 1,2 1,2 0,1 0,2 0,2l0 0c11,-11 22,-22 34,-33 0,0 0,0 0,0 0,0 0,0 0,0 1,-1 1,-3 -1,-4z"/>
   <path class="fil22" d="M43 364c-1,-2 -3,-2 -4,-1 -1,1 -1,3 1,5 1,1 3,2 4,1 0,-1 0,-1 0,-1 1,-1 0,-3 -1,-4z"/>
   <path class="fil2" d="M43 364c-1,-1 -3,-2 -4,-1 -1,1 0,3 1,5 1,1 3,1 4,0 0,0 0,0 0,0 0,-1 0,-3 -1,-4z"/>
  </g>
  <g id="_1963080087920">
   <path class="fil20 str1" d="M56 367l-8 8c1,-1 2,-1 4,1 1,1 1,3 0,4l10 -10 22 -21 1 -2 1 0c-1,0 -2,-1 -3,-2 -1,-1 -1,-2 -1,-3l-3 3 -1 1 -22 21z"/>
   <path class="fil21" d="M56 367l-7 7c0,0 0,0 1,0 0,1 1,1 2,2 0,0 1,1 1,2 0,0 0,1 0,1 11,-11 22,-21 32,-32 0,0 0,0 -1,0 0,-1 -1,-1 -1,-2 -1,0 -1,-1 -1,-1 0,-1 0,-1 0,-2l-26 25zm-8 8l34 -34 0 1c0,0 0,1 0,1 0,1 1,2 1,2 1,1 1,1 2,1 0,0 1,1 1,1l0 0c-11,11 -22,22 -34,33l0 0c0,-1 0,-1 0,-2 0,-1 0,-1 -1,-2 0,-1 -1,-1 -1,-1 -1,0 -2,0 -2,0l0 0z"/>
   <path class="fil22" d="M52 376c-2,-2 -4,-2 -5,-1 -1,1 0,3 1,4 1,2 3,2 4,1 0,0 0,0 0,0 1,-1 1,-3 0,-4z"/>
   <path class="fil2" d="M51 376c-1,-2 -2,-2 -3,-1 -1,1 -1,3 0,4 1,2 3,2 4,1 0,0 0,0 0,0 1,-1 1,-3 -1,-4z"/>
   <path class="fil17" d="M83 341c14,-15 30,-30 38,-38 7,-7 7,-7 7,-8 2,0 4,1 5,3 0,1 0,1 0,1 0,1 -1,1 -8,9 -8,7 -23,22 -31,30 -7,7 -7,8 -8,8 0,-1 0,-2 0,-3 0,0 -3,-1 -3,-2z"/>
   <path class="fil20" d="M86 342c-2,-1 -3,-2 -4,-1 -1,2 -1,4 0,5 1,1 3,2 4,1 0,0 0,0 0,0 1,-1 1,-3 0,-5z"/>
  </g>
  <g id="_1963080090384">
   <path class="fil23 str1" d="M54 359l-8 8c1,-1 2,0 3,1 2,1 2,3 1,4l10 -10 22 -21 1 -1 1 -1c-1,0 -2,0 -3,-1 -1,-2 -1,-3 -1,-4l-3 3 -1 1 -22 21z"/>
   <path class="fil24" d="M54 359l-7 8c0,-1 0,0 1,0 0,0 1,0 2,1 0,1 1,1 1,2 0,1 0,1 0,1 11,-10 22,-21 32,-32 0,0 0,0 -1,0 0,0 -1,-1 -1,-1 -1,-1 -1,-2 -1,-2 0,-1 0,-1 0,-2l-26 25zm-8 8l34 -33 0 0c0,1 0,1 0,2 0,0 1,1 1,1 1,1 1,1 1,2 1,0 1,0 2,0l0 0c-11,11 -22,22 -34,33l0 0c0,0 0,-1 0,-2 0,0 0,-1 -1,-2 0,0 -1,-1 -1,-1 -1,0 -2,0 -2,0l0 0z"/>
   <path class="fil22" d="M50 368c-2,-2 -4,-2 -5,-1 -1,1 0,3 1,5 1,1 3,2 4,1 0,0 0,0 0,-1 1,-1 1,-3 0,-4z"/>
   <path class="fil2" d="M49 368c-1,-1 -2,-2 -3,-1 -1,1 -1,3 0,5 1,1 3,1 4,0 0,0 0,0 0,0 1,-1 1,-3 -1,-4z"/>
   <path class="fil7" d="M80 334c15,-15 31,-31 39,-39 7,-7 7,-7 7,-7 2,-1 4,1 4,2 1,1 1,1 1,2 -1,0 -1,0 -8,8 -8,8 -23,23 -31,30 -7,7 -8,8 -8,8 0,0 0,-2 0,-3 0,0 -3,-1 -4,-1z"/>
   <path class="fil23" d="M84 335c-2,-2 -3,-2 -4,-1 -1,1 -1,3 0,4 1,2 3,2 4,1 0,0 0,0 0,0 1,-1 1,-3 0,-4z"/>
  </g>
  <g id="_1963080092688">
   <path class="fil7" d="M89 345c15,-15 31,-31 38,-39 7,-7 7,-7 8,-7 2,-1 3,1 4,2 0,1 0,1 0,2 0,0 0,0 -8,8 -8,8 -23,22 -30,30 -8,7 -8,8 -8,8 0,-1 0,-2 -1,-3 0,0 -2,-1 -3,-1z"/>
   <path class="fil25" d="M92 346c-1,-2 -3,-2 -4,-1l0 0 -34 33 0 0c1,0 1,0 2,0 1,0 1,1 2,1 0,1 1,2 1,2 0,1 0,2 -1,2l1 0c11,-11 22,-22 33,-33 0,0 0,0 1,0 0,0 0,0 0,0 0,-1 0,-3 -1,-4z"/>
   <path class="fil22" d="M58 379c-1,-2 -3,-2 -4,-1 -1,1 -1,3 0,5 2,1 3,2 4,1 1,0 1,-1 1,-1 0,-1 0,-3 -1,-4z"/>
   <path class="fil2" d="M58 379c-1,-1 -3,-2 -4,-1 -1,1 -1,3 0,5 2,1 3,1 4,0 0,0 0,0 0,0 1,-1 1,-3 0,-4z"/>
  </g>
  <g id="_1963080095824">
   <path class="fil7" d="M87 338c15,-15 31,-31 38,-39 8,-7 8,-7 8,-7 2,-1 4,1 4,2 0,1 0,1 0,2 0,0 0,0 -8,8 -7,8 -23,22 -30,30 -8,7 -8,8 -8,8 0,-1 0,-2 -1,-3 0,0 -2,-1 -3,-1z"/>
   <path class="fil23" d="M90 339c-1,-2 -3,-2 -4,-1l0 0 -34 33 1 0c0,0 1,0 1,0 1,0 1,1 2,1 0,1 1,2 1,2 0,1 0,2 0,2l0 0c11,-11 22,-22 34,-33 0,0 0,0 0,0 0,0 0,0 0,0 1,-1 0,-3 -1,-4z"/>
   <path class="fil22" d="M56 372c-1,-2 -3,-2 -4,-1 -1,1 -1,3 0,5 2,1 4,2 5,1 0,0 0,-1 0,-1 1,-1 0,-3 -1,-4z"/>
   <path class="fil2" d="M56 372c-1,-1 -3,-2 -4,-1 -1,1 -1,3 1,5 1,1 3,1 3,0 0,0 1,0 1,0 0,-1 0,-3 -1,-4z"/>
  </g>
  <g id="_1963080095760">
   <path class="fil7" d="M136 364c15,-15 30,-31 38,-38 7,-8 7,-8 8,-8 2,-1 3,1 4,3 0,0 0,1 0,1 0,0 0,1 -8,8 -8,8 -23,23 -30,30 -8,8 -8,8 -8,8 0,0 0,-2 -1,-2 0,-1 -3,-1 -3,-2z"/>
   <path class="fil25" d="M139 365c-1,-2 -3,-2 -4,-1l0 0 -34 33 0 0c1,0 1,0 2,0 0,0 1,1 2,1 0,1 0,2 1,2 0,1 0,2 -1,2l1 1c11,-11 22,-22 33,-34 0,0 0,0 0,0 1,0 1,0 1,0 0,-1 0,-3 -1,-4z"/>
   <path class="fil22" d="M105 398c-1,-1 -3,-2 -4,-1 -1,1 -1,3 0,5 2,1 3,2 4,1 0,0 1,0 1,0 0,-2 0,-3 -1,-5z"/>
   <path class="fil2" d="M105 398c-1,-1 -3,-1 -4,-1 -1,1 -1,3 0,5 2,1 3,2 4,1 0,0 0,-1 0,-1 1,-1 1,-2 0,-4z"/>
  </g>
  <g id="_1963080096944">
   <path class="fil7" d="M143 368c15,-15 30,-31 38,-39 7,-7 7,-7 7,-7 2,-1 4,1 5,2 0,1 0,1 0,2 0,0 -1,0 -8,8 -8,8 -23,22 -31,30 -7,7 -7,8 -7,8 -1,-1 0,-2 -1,-3 0,0 -3,-1 -3,-1z"/>
   <path class="fil25" d="M146 369c-1,-2 -3,-2 -4,-1l0 0 -34 33 0 0c1,0 1,0 2,0 0,0 1,1 1,1 1,1 1,2 1,2 1,1 0,2 0,2l0 0c12,-11 23,-22 34,-33 0,0 0,0 0,0 0,0 0,0 1,0 0,-1 0,-3 -1,-4z"/>
   <path class="fil22" d="M112 402c-2,-2 -3,-2 -4,-1 -1,1 -1,3 0,5 1,1 3,2 4,1 0,0 0,-1 0,-1 1,-1 1,-3 0,-4z"/>
   <path class="fil2" d="M112 402c-2,-1 -3,-2 -4,-1 -1,1 -1,3 0,5 1,1 3,1 4,0 0,0 0,0 0,0 1,-1 1,-3 0,-4z"/>
  </g>
  <g id="_1963080100144">
   <path class="fil7" d="M141 360c15,-15 30,-30 38,-38 7,-8 7,-8 8,-8 2,-1 3,1 4,3 0,1 0,1 0,1 0,1 0,1 -8,9 -8,7 -23,22 -30,30 -8,7 -8,8 -8,7 0,0 0,-1 -1,-2 0,-1 -3,-1 -3,-2z"/>
   <path class="fil26" d="M144 361c-1,-1 -3,-2 -4,-1l0 0 -34 33 0 1c1,-1 1,-1 2,0 0,0 1,0 2,1 0,0 0,1 1,2 0,1 0,1 -1,2l1 0c11,-11 22,-22 33,-33 0,0 0,0 0,0 1,0 1,0 1,0 0,-2 0,-3 -1,-5z"/>
   <path class="fil22" d="M110 395c-1,-2 -3,-2 -4,-1 -1,1 -1,3 0,4 2,2 3,2 4,1 0,0 1,0 1,0 0,-1 0,-3 -1,-4z"/>
   <path class="fil2" d="M110 395c-1,-2 -3,-2 -4,-1 -1,1 -1,3 0,4 2,2 3,2 4,1 0,0 0,0 0,0 1,-1 1,-3 0,-4z"/>
  </g>
  <g id="_1963080098704">
   <path class="fil20 str1" d="M123 397l-8 8c1,-1 3,-1 4,1 1,1 1,3 0,4l11 -10 21 -21 2 -2 0 0c-1,0 -2,-1 -3,-2 -1,-1 -1,-2 -1,-3l-3 3 -1 1 -22 21z"/>
   <path class="fil21" d="M123 397l-7 7c0,0 1,0 1,0 1,1 1,1 2,2 0,0 1,1 1,2 0,0 0,1 0,1 11,-11 22,-21 33,-32 -1,0 -1,0 -1,0 -1,-1 -2,-1 -2,-2 0,0 -1,-1 -1,-1 0,-1 0,-1 0,-2l-26 25zm-8 8l34 -34 0 1c0,0 0,1 0,1 1,1 1,2 1,2 1,1 1,1 2,1 0,0 1,1 1,1l0 0c-11,11 -22,22 -33,33l-1 0c1,-1 1,-1 1,-2 -1,-1 -1,-1 -1,-2 -1,-1 -2,-1 -2,-1 -1,0 -1,0 -2,0l0 0z"/>
   <path class="fil22" d="M119 406c-1,-2 -3,-2 -4,-1 -1,1 -1,3 0,4 1,2 3,2 4,1 0,0 0,0 1,0 0,-1 0,-3 -1,-4z"/>
   <path class="fil2" d="M119 406c-2,-2 -3,-2 -4,-1 -1,1 -1,3 0,4 2,2 3,2 4,1 0,0 0,0 0,0 1,-1 1,-3 0,-4z"/>
   <path class="fil17" d="M150 371c15,-15 30,-30 38,-38 7,-7 7,-7 8,-8 1,0 3,1 4,3 0,1 0,1 0,1 0,1 0,1 -8,9 -8,7 -23,22 -30,30 -8,7 -8,8 -8,8 -1,-1 0,-2 -1,-3 0,-1 -3,-1 -3,-2z"/>
   <path class="fil20" d="M153 372c-1,-1 -3,-2 -4,-1 -1,1 -1,4 0,5 2,1 3,2 4,1 0,0 1,0 1,0 0,-1 0,-3 -1,-5z"/>
  </g>
  <g id="_1963080102192">
   <path class="fil23 str1" d="M120 390l-8 8c1,-1 3,0 4,1 1,1 1,3 1,4l10 -10 22 -21 1 -2 0 0c0,0 -2,-1 -2,-2 -1,-1 -2,-2 -2,-3l-3 3 -1 1 -22 21z"/>
   <path class="fil24" d="M121 390l-8 7c1,0 1,0 1,0 1,1 2,1 2,2 1,0 1,1 1,2 0,0 0,1 0,1 11,-11 22,-21 33,-32 0,0 -1,0 -1,0 -1,-1 -1,-1 -2,-2 0,0 0,-1 -1,-1 0,-1 0,-1 0,-2l-25 25zm-9 8l34 -33 1 0c0,0 0,1 0,1 0,1 0,2 1,2 0,1 1,1 1,1 1,1 1,1 1,1l1 0c-12,11 -23,22 -34,33l0 0c0,-1 0,-1 0,-2 0,-1 -1,-1 -1,-2 -1,-1 -1,-1 -2,-1 0,0 -1,0 -1,0l-1 0z"/>
   <path class="fil22" d="M116 399c-1,-2 -3,-2 -4,-1 -1,1 -1,3 1,5 1,1 3,1 4,0 0,0 0,0 0,0 1,-1 0,-3 -1,-4z"/>
   <path class="fil2" d="M116 399c-1,-2 -3,-2 -4,-1 -1,1 0,3 1,4 1,2 3,2 3,1 1,0 1,0 1,0 0,-1 0,-3 -1,-4z"/>
   <path class="fil7" d="M147 365c15,-16 31,-31 38,-39 8,-7 8,-7 8,-7 2,-1 4,0 4,2 0,1 0,1 0,2 0,0 0,0 -8,8 -7,7 -23,22 -30,30 -8,7 -8,8 -8,8 0,-1 0,-2 0,-3 -1,0 -3,-1 -4,-1z"/>
   <path class="fil23" d="M150 365c-1,-1 -3,-2 -4,0 -1,1 0,3 1,4 1,2 3,2 4,1 0,0 0,0 0,0 1,-1 0,-3 -1,-5z"/>
  </g>
  <g id="_1963080103728">
   <path class="fil20 str1" d="M129 401l-8 8c1,-1 3,0 4,1 1,1 1,3 0,4l11 -10 21 -21 2 -1 0 -1c-1,0 -2,0 -3,-1 -1,-2 -1,-3 -1,-4l-3 3 -1 1 -22 21z"/>
   <path class="fil21" d="M129 401l-7 7c0,0 1,0 1,1 1,0 1,0 2,1 1,1 1,1 1,2 0,1 0,1 0,1 11,-10 22,-21 33,-32 -1,0 -1,0 -1,0 -1,0 -1,-1 -2,-1 0,-1 -1,-2 -1,-2 0,-1 0,-1 0,-2l-26 25zm-8 8l34 -33 0 0c0,0 0,1 0,2 1,0 1,1 1,1 1,1 1,1 2,1 0,1 1,1 1,1l0 0c-11,11 -22,22 -33,33l-1 0c1,0 1,-1 1,-2 -1,0 -1,-1 -1,-2 -1,0 -2,-1 -2,-1 -1,0 -1,0 -2,0l0 0z"/>
   <path class="fil22" d="M125 410c-1,-2 -3,-2 -4,-1 -1,1 -1,3 0,5 2,1 3,2 4,1 0,0 1,-1 1,-1 0,-1 0,-3 -1,-4z"/>
   <path class="fil2" d="M125 410c-1,-1 -3,-2 -4,-1 -1,1 -1,3 0,5 2,1 3,1 4,0 0,0 0,0 0,0 1,-1 1,-3 0,-4z"/>
   <path class="fil17" d="M156 376c15,-15 30,-31 38,-39 7,-7 7,-7 8,-7 2,-1 3,1 4,2 0,1 0,1 0,2 0,0 0,0 -8,8 -8,8 -23,22 -30,30 -8,7 -8,8 -8,8 0,-1 0,-2 -1,-3 0,0 -3,-1 -3,-1z"/>
   <path class="fil20" d="M159 377c-1,-2 -3,-2 -4,-1 -1,1 -1,3 0,4 2,2 3,2 4,1 1,0 1,0 1,0 0,-1 0,-3 -1,-4z"/>
  </g>
  <polygon class="fil1" points="201,332 180,354 180,386 214,344 "/>
  <polygon class="fil8" points="184,357 200,340 200,345 184,364 "/>
  <polygon class="fil8" points="184,368 201,349 201,354 184,374 "/>
  <path class="fil1" d="M197 337l17 7 9 -11c-6,1 -14,1 -22,-1l-4 5z"/>
  <polygon class="fil8" points="211,333 206,332 202,337 203,342 "/>
  <polygon class="fil8" points="219,333 215,332 204,345 204,351 "/>
  <path class="fil7" d="M243 277c2,4 3,9 4,14 0,1 0,2 1,4 0,0 0,0 0,1 0,7 -4,19 -7,25 2,-1 9,-11 11,-13 8,-11 8,-26 1,-42 -3,-7 -7,-15 -14,-21 -2,-3 -4,-5 -6,-6 -14,-12 -30,-18 -44,-16 -4,1 -9,2 -12,4 -2,1 -4,3 -5,4 -2,2 -9,8 -10,11 15,-8 42,-7 60,7 2,2 4,4 7,7 6,6 10,13 14,21z"/>
  <path class="fil16" d="M229 256c-22,-23 -52,-29 -69,-13 -16,15 -12,46 9,69 22,23 52,28 69,13 1,-1 2,-2 3,-4 12,-16 8,-44 -12,-65zm-1 1c-21,-22 -50,-27 -66,-13 -16,15 -12,45 8,67 21,22 50,27 66,12 1,-1 2,-2 3,-3 12,-16 8,-43 -11,-63z"/>
  <path class="fil27" d="M228 257c-21,-22 -50,-27 -66,-13 -16,15 -12,45 8,67 21,22 50,27 66,12 1,-1 2,-2 3,-3 12,-16 8,-43 -11,-63z"/>
 </g>
</svg>
