<?xml version="1.0" encoding="UTF-8"?>
<!DOCTYPE svg PUBLIC "-//W3C//DTD SVG 1.1//EN" "http://www.w3.org/Graphics/SVG/1.1/DTD/svg11.dtd">
<!-- Creator: CorelDRAW X8 -->
<svg xmlns="http://www.w3.org/2000/svg" xml:space="preserve" width="3.51654in" height="3.24095in" version="1.1" style="shape-rendering:geometricPrecision; text-rendering:geometricPrecision; image-rendering:optimizeQuality; fill-rule:evenodd; clip-rule:evenodd"
viewBox="0 0 614 566"
 xmlns:xlink="http://www.w3.org/1999/xlink">
 <defs>
  <style type="text/css">
   <![CDATA[
    .fil1 {fill:#BDBFC1}
    .fil0 {fill:#E74E53}
    .fil2 {fill:#D9D9D9}
    .fil5 {fill:#AD3346}
    .fil4 {fill:#6A2A36}
    .fil3 {fill:#888C8E}
    .fil7 {fill:#14171F}
    .fil6 {fill:#191D29}
   ]]>
  </style>
 </defs>
 <g id="Layer_x0020_1">
  <metadata id="CorelCorpID_0Corel-Layer"/>
  <path class="fil0" d="M292 36c19,-12 38,-23 48,-29 9,-5 9,-5 9,-5 1,0 1,-1 2,-1 1,0 2,-1 3,-1 1,0 3,0 5,0 2,0 3,1 5,1 1,0 2,1 3,1 1,1 3,2 4,2 1,1 2,2 3,3 2,1 3,2 4,3 1,1 2,3 3,4 1,2 2,3 3,5 1,1 2,2 2,4 1,2 2,4 2,6 1,2 1,4 2,6 0,2 0,4 0,5 0,2 0,4 0,5 -1,1 -1,3 -1,4 -1,1 -1,3 -2,4 -1,2 -2,3 -12,11 -11,7 -32,20 -43,27 -10,7 -10,7 -9,5 1,-2 3,-5 4,-8 2,-3 3,-5 3,-9 0,-3 0,-8 -1,-12 -1,-4 -2,-7 -4,-10 -2,-4 -4,-7 -6,-10 -3,-3 -5,-5 -8,-7 -3,-2 -7,-3 -10,-3 -3,-1 -7,-1 -9,-1z"/>
  <polygon class="fil1" points="157,2 47,48 348,105 427,48 "/>
  <polygon class="fil2" points="348,105 47,48 98,403 539,564 575,391 344,322 "/>
  <polygon class="fil1" points="427,238 344,322 575,391 614,294 "/>
  <polygon class="fil3" points="614,294 575,391 539,566 585,452 "/>
  <circle class="fil4" transform="matrix(1.19806 1.13382 -0.68174 0.72037 265.027 406.492)" r="65"/>
  <path class="fil5" d="M211 315c-10,1 -18,5 -25,10l-3 4c-26,27 -10,84 35,127 45,42 101,55 128,30l7 -9c17,-30 0,-81 -41,-120 -2,-2 -3,-3 -5,-4 -32,-28 -68,-42 -96,-38zm85 33c4,4 9,8 13,12 43,40 58,94 34,120 -25,26 -79,14 -122,-27 -43,-40 -58,-94 -33,-120 7,-8 18,-12 30,-13 23,-2 51,8 78,28z"/>
  <path class="fil0" d="M209 303l-23 22c7,-5 15,-9 25,-10 28,-4 64,10 96,38 2,1 3,2 5,4 41,39 58,90 41,120l66 -83c24,-36 148,-199 154,-233 0,-4 1,-8 1,-13l-1 -11c-7,-47 -59,-76 -103,-60 -4,1 -8,3 -12,5 -4,2 -7,5 -11,8 -6,5 -13,13 -19,18l-18 17 -132 116 -69 62z"/>
  <polygon class="fil3" points="348,105 427,48 422,141 346,210 "/>
  <path class="fil6" d="M346 210c-35,-7 -68,-1 -88,22 -11,13 -17,28 -17,43l30 -26c18,-23 46,-27 75,-20 0,0 0,0 0,0l0 -19z"/>
  <path class="fil2" d="M347 180l-35 27c9,0 24,1 34,3l1 -30z"/>
  <polygon class="fil7" points="346,229 346,210 375,183 375,199 "/>
  <polygon class="fil7" points="422,141 378,180 394,181 422,155 "/>
  <circle class="fil4" transform="matrix(0.403724 0.693147 -0.416776 0.242751 39.9015 236.365)" r="65"/>
  <path class="fil5" d="M27 186c-4,-1 -9,0 -13,2l-2 1c-16,9 -16,38 -1,64 15,26 40,40 56,32l4 -4c12,-11 12,-37 -2,-61 -1,-1 -1,-2 -2,-3 -11,-17 -26,-29 -40,-31zm35 28c2,2 3,4 5,7 14,24 14,52 -1,60 -15,9 -39,-4 -53,-29 -14,-25 -14,-52 1,-60 4,-3 10,-4 16,-3 11,3 23,11 32,25z"/>
  <path class="fil6" d="M186 144c19,30 13,65 -7,73 -20,8 -43,-4 -59,-32 -17,-28 -16,-59 1,-69 17,-10 46,-2 65,28z"/>
  <path class="fil0" d="M28 181l-14 7c4,-2 9,-3 13,-2 14,2 29,14 40,31 1,1 1,2 2,3 14,24 14,50 2,61l42 -30 73 -50c1,-2 2,-4 2,-6 8,-34 -21,-82 -59,-73 -2,1 -4,1 -6,2 -4,2 -8,4 -12,6l-83 51z"/>
 </g>
</svg>
